Raleway-ExtraBold-TTF.ufo
<glyph name="dollar" format="1">
  <advance width="641"/>
  <unicode hex="0024"/>
  <outline>
    <contour>
      <point x="509" y="502" type="line"/>
      <point x="506" y="506"/>
      <point x="477" y="524"/>
      <point x="432" y="545"/>
      <point x="377" y="564"/>
      <point x="349" y="568" type="qcurve"/>
      <point x="349" y="432" type="line"/>
      <point x="381" y="424" type="line"/>
      <point x="432" y="410"/>
      <point x="514" y="377"/>
      <point x="571" y="328"/>
      <point x="602" y="258"/>
      <point x="602" y="209" type="qcurve"/>
      <point x="602" y="152"/>
      <point x="562" y="72"/>
      <point x="495" y="21"/>
      <point x="408" y="-5"/>
      <point x="360" y="-7" type="qcurve"/>
      <point x="360" y="-123" type="line"/>
      <point x="291" y="-123" type="line"/>
      <point x="291" y="-6" type="line"/>
      <point x="222" y="0"/>
      <point x="87" y="44"/>
      <point x="33" y="80" type="qcurve"/>
      <point x="105" y="223" type="line"/>
      <point x="109" y="218"/>
      <point x="144" y="195"/>
      <point x="198" y="170"/>
      <point x="266" y="147"/>
      <point x="302" y="142" type="qcurve"/>
      <point x="302" y="275" type="line"/>
      <point x="254" y="289" type="line"/>
      <point x="205" y="304"/>
      <point x="133" y="339"/>
      <point x="86" y="385"/>
      <point x="63" y="445"/>
      <point x="63" y="485" type="qcurve"/>
      <point x="63" y="537"/>
      <point x="99" y="618"/>
      <point x="160" y="676"/>
      <point x="243" y="709"/>
      <point x="291" y="714" type="qcurve"/>
      <point x="291" y="815" type="line"/>
      <point x="360" y="815" type="line"/>
      <point x="360" y="714" type="line"/>
      <point x="425" y="708"/>
      <point x="539" y="662"/>
      <point x="581" y="638" type="qcurve"/>
    </contour>
    <contour>
      <point x="426" y="193" type="qcurve"/>
      <point x="426" y="219"/>
      <point x="384" y="248"/>
      <point x="349" y="260" type="qcurve"/>
      <point x="349" y="140" type="line"/>
      <point x="426" y="143"/>
    </contour>
    <contour>
      <point x="232" y="511" type="qcurve"/>
      <point x="232" y="486"/>
      <point x="267" y="457"/>
      <point x="302" y="446" type="qcurve"/>
      <point x="302" y="569" type="line"/>
      <point x="232" y="563"/>
    </contour>
  </outline>
</glyph>
<glyph name="quotesingle" format="1">
  <advance width="250"/>
  <unicode hex="0027"/>
  <outline>
    <contour>
      <point x="57" y="497" type="line"/>
      <point x="57" y="726" type="line"/>
      <point x="192" y="726" type="line"/>
      <point x="192" y="497" type="line"/>
    </contour>
  </outline>
</glyph>
<glyph name="one" format="1">
  <advance width="518"/>
  <unicode hex="0031"/>
  <outline>
    <contour>
      <point x="494" y="144" type="line"/>
      <point x="494" y="0" type="line"/>
      <point x="62" y="0" type="line"/>
      <point x="62" y="144" type="line"/>
      <point x="204" y="144" type="line"/>
      <point x="204" y="399" type="line"/>
      <point x="195" y="387"/>
      <point x="157" y="362"/>
      <point x="110" y="341"/>
      <point x="61" y="328"/>
      <point x="42" y="328" type="qcurve"/>
      <point x="42" y="476" type="line"/>
      <point x="58" y="476"/>
      <point x="109" y="498"/>
      <point x="159" y="529"/>
      <point x="199" y="561"/>
      <point x="204" y="571" type="qcurve"/>
      <point x="367" y="571" type="line"/>
      <point x="367" y="144" type="line"/>
    </contour>
  </outline>
</glyph>
<glyph name="semicolon" format="1">
  <advance width="280"/>
  <unicode hex="003B"/>
  <outline>
    <contour>
      <point x="74" y="356" type="line"/>
      <point x="74" y="519" type="line"/>
      <point x="204" y="519" type="line"/>
      <point x="204" y="356" type="line"/>
    </contour>
    <contour>
      <point x="90" y="-135" type="line"/>
      <point x="122" y="2" type="line"/>
      <point x="73" y="2" type="line"/>
      <point x="73" y="163" type="line"/>
      <point x="208" y="163" type="line"/>
      <point x="208" y="2" type="line"/>
      <point x="161" y="-135" type="line"/>
    </contour>
  </outline>
</glyph>
<glyph name="B" format="1">
  <advance width="684"/>
  <unicode hex="0042"/>
  <outline>
    <contour>
      <point x="655" y="182" type="qcurve"/>
      <point x="655" y="136"/>
      <point x="617" y="68"/>
      <point x="551" y="23"/>
      <point x="463" y="0"/>
      <point x="414" y="0" type="qcurve"/>
      <point x="68" y="0" type="line"/>
      <point x="68" y="710" type="line"/>
      <point x="463" y="710" type="line"/>
      <point x="500" y="710"/>
      <point x="560" y="678"/>
      <point x="602" y="627"/>
      <point x="625" y="562"/>
      <point x="625" y="528" type="qcurve"/>
      <point x="625" y="477"/>
      <point x="574" y="387"/>
      <point x="523" y="364" type="qcurve"/>
      <point x="584" y="346"/>
      <point x="655" y="254"/>
    </contour>
    <contour>
      <point x="488" y="215" type="qcurve"/>
      <point x="488" y="248"/>
      <point x="450" y="294"/>
      <point x="421" y="294" type="qcurve"/>
      <point x="232" y="294" type="line"/>
      <point x="232" y="139" type="line"/>
      <point x="414" y="139" type="line"/>
      <point x="446" y="139"/>
      <point x="488" y="181"/>
    </contour>
    <contour>
      <point x="232" y="570" type="line"/>
      <point x="232" y="423" type="line"/>
      <point x="393" y="423" type="line"/>
      <point x="420" y="423"/>
      <point x="462" y="459"/>
      <point x="462" y="497" type="qcurve"/>
      <point x="462" y="532"/>
      <point x="425" y="570"/>
      <point x="399" y="570" type="qcurve"/>
    </contour>
  </outline>
</glyph>
<glyph name="K" format="1">
  <advance width="679"/>
  <unicode hex="004B"/>
  <outline>
    <contour>
      <point x="361" y="0" type="move" name="bottom"/>
    </contour>
    <contour>
      <point x="68" y="0" type="line"/>
      <point x="68" y="710" type="line"/>
      <point x="232" y="710" type="line"/>
      <point x="232" y="404" type="line"/>
      <point x="492" y="710" type="line"/>
      <point x="676" y="710" type="line"/>
      <point x="410" y="393" type="line"/>
      <point x="694" y="0" type="line"/>
      <point x="507" y="0" type="line"/>
      <point x="306" y="286" type="line"/>
      <point x="232" y="209" type="line"/>
      <point x="232" y="0" type="line"/>
    </contour>
  </outline>
</glyph>
<glyph name="f" format="1">
  <advance width="385"/>
  <unicode hex="0066"/>
  <outline>
    <contour>
      <point x="89" y="0" type="line"/>
      <point x="89" y="361" type="line"/>
      <point x="22" y="361" type="line"/>
      <point x="22" y="482" type="line"/>
      <point x="89" y="482" type="line"/>
      <point x="89" y="525" type="line"/>
      <point x="89" y="574"/>
      <point x="115" y="654"/>
      <point x="163" y="710"/>
      <point x="231" y="740"/>
      <point x="272" y="740" type="qcurve"/>
      <point x="336" y="740"/>
      <point x="409" y="709" type="qcurve"/>
      <point x="380" y="589" type="line"/>
      <point x="364" y="596"/>
      <point x="325" y="605"/>
      <point x="308" y="605" type="qcurve"/>
      <point x="249" y="605"/>
      <point x="249" y="531" type="qcurve"/>
      <point x="249" y="482" type="line"/>
      <point x="371" y="482" type="line"/>
      <point x="371" y="361" type="line"/>
      <point x="249" y="361" type="line"/>
      <point x="249" y="0" type="line"/>
    </contour>
  </outline>
</glyph>
<glyph name="m" format="1">
  <advance width="935"/>
  <unicode hex="006D"/>
  <outline>
    <contour>
      <point x="885" y="0" type="line"/>
      <point x="725" y="0" type="line"/>
      <point x="725" y="295" type="line"/>
      <point x="725" y="347"/>
      <point x="687" y="394"/>
      <point x="657" y="394" type="qcurve"/>
      <point x="641" y="394"/>
      <point x="608" y="380"/>
      <point x="580" y="355"/>
      <point x="557" y="321"/>
      <point x="550" y="301" type="qcurve"/>
      <point x="550" y="0" type="line"/>
      <point x="390" y="0" type="line"/>
      <point x="390" y="295" type="line"/>
      <point x="390" y="347"/>
      <point x="352" y="394"/>
      <point x="322" y="394" type="qcurve"/>
      <point x="290" y="394"/>
      <point x="229" y="343"/>
      <point x="215" y="301" type="qcurve"/>
      <point x="215" y="0" type="line"/>
      <point x="55" y="0" type="line"/>
      <point x="55" y="525" type="line"/>
      <point x="199" y="525" type="line"/>
      <point x="199" y="437" type="line"/>
      <point x="228" y="485"/>
      <point x="327" y="535"/>
      <point x="393" y="535" type="qcurve"/>
      <point x="426" y="535"/>
      <point x="475" y="519"/>
      <point x="511" y="491"/>
      <point x="533" y="454"/>
      <point x="538" y="433" type="qcurve"/>
      <point x="568" y="482"/>
      <point x="666" y="535"/>
      <point x="729" y="535" type="qcurve"/>
      <point x="779" y="535"/>
      <point x="840" y="498"/>
      <point x="874" y="439"/>
      <point x="885" y="369"/>
      <point x="885" y="336" type="qcurve"/>
    </contour>
  </outline>
</glyph>
<glyph name="cent" format="1">
  <advance width="604"/>
  <unicode hex="00A2"/>
  <outline>
    <contour>
      <point x="276" y="-120" type="line"/>
      <point x="276" y="-9" type="line"/>
      <point x="224" y="-5"/>
      <point x="136" y="44"/>
      <point x="73" y="118"/>
      <point x="38" y="210"/>
      <point x="38" y="258" type="qcurve"/>
      <point x="38" y="309"/>
      <point x="68" y="400"/>
      <point x="128" y="473"/>
      <point x="217" y="524"/>
      <point x="276" y="533" type="qcurve"/>
      <point x="276" y="645" type="line"/>
      <point x="345" y="645" type="line"/>
      <point x="345" y="533" type="line"/>
      <point x="414" y="531"/>
      <point x="532" y="463"/>
      <point x="567" y="396" type="qcurve"/>
      <point x="411" y="349" type="line"/>
      <point x="400" y="368"/>
      <point x="364" y="392"/>
      <point x="345" y="394" type="qcurve"/>
      <point x="345" y="129" type="line"/>
      <point x="367" y="135"/>
      <point x="404" y="160"/>
      <point x="412" y="177" type="qcurve"/>
      <point x="568" y="129" type="line"/>
      <point x="552" y="94"/>
      <point x="497" y="42"/>
      <point x="434" y="7"/>
      <point x="370" y="-10"/>
      <point x="345" y="-10" type="qcurve"/>
      <point x="345" y="-120" type="line"/>
    </contour>
    <contour>
      <point x="203" y="258" type="qcurve"/>
      <point x="203" y="219"/>
      <point x="241" y="152"/>
      <point x="276" y="137" type="qcurve"/>
      <point x="276" y="387" type="line"/>
      <point x="241" y="376"/>
      <point x="203" y="304"/>
    </contour>
  </outline>
</glyph>
<glyph name="guillemotleft" format="1">
  <advance width="679"/>
  <unicode hex="00AB"/>
  <outline>
    <contour>
      <point x="33" y="293" type="line"/>
      <point x="303" y="486" type="line"/>
      <point x="303" y="357" type="line"/>
      <point x="159" y="259" type="line"/>
      <point x="303" y="168" type="line"/>
      <point x="303" y="39" type="line"/>
      <point x="33" y="217" type="line"/>
    </contour>
    <contour>
      <point x="352" y="293" type="line"/>
      <point x="622" y="486" type="line"/>
      <point x="622" y="357" type="line"/>
      <point x="478" y="259" type="line"/>
      <point x="622" y="168" type="line"/>
      <point x="622" y="39" type="line"/>
      <point x="352" y="217" type="line"/>
    </contour>
  </outline>
</glyph>
<glyph name="onehalf" format="1">
  <advance width="992"/>
  <unicode hex="00BD"/>
  <outline>
    <contour>
      <point x="588" y="0" type="line"/>
      <point x="588" y="42"/>
      <point x="601" y="104"/>
      <point x="631" y="151"/>
      <point x="681" y="188"/>
      <point x="719" y="204" type="qcurve"/>
      <point x="743" y="214"/>
      <point x="789" y="232"/>
      <point x="825" y="253"/>
      <point x="848" y="279"/>
      <point x="848" y="297" type="qcurve"/>
      <point x="848" y="322"/>
      <point x="806" y="344"/>
      <point x="769" y="344" type="qcurve"/>
      <point x="727" y="344"/>
      <point x="667" y="314"/>
      <point x="649" y="297" type="qcurve"/>
      <point x="591" y="366" type="line"/>
      <point x="609" y="390"/>
      <point x="709" y="435"/>
      <point x="784" y="435" type="qcurve"/>
      <point x="865" y="435"/>
      <point x="952" y="363"/>
      <point x="952" y="296" type="qcurve"/>
      <point x="952" y="263"/>
      <point x="927" y="216"/>
      <point x="889" y="184"/>
      <point x="844" y="165"/>
      <point x="825" y="159" type="qcurve"/>
      <point x="740" y="134"/>
      <point x="740" y="91" type="qcurve"/>
      <point x="953" y="91" type="line"/>
      <point x="953" y="0" type="line"/>
    </contour>
    <contour>
      <point x="153" y="56" type="line"/>
      <point x="435" y="380" type="line"/>
      <point x="691" y="719" type="line"/>
      <point x="763" y="655" type="line"/>
      <point x="490" y="339" type="line"/>
      <point x="224" y="-9" type="line"/>
    </contour>
    <contour>
      <point x="296" y="389" type="line"/>
      <point x="296" y="297" type="line"/>
      <point x="56" y="297" type="line"/>
      <point x="56" y="389" type="line"/>
      <point x="133" y="389" type="line"/>
      <point x="133" y="632" type="line"/>
      <point x="128" y="625"/>
      <point x="106" y="607"/>
      <point x="79" y="591"/>
      <point x="51" y="580"/>
      <point x="39" y="580" type="qcurve"/>
      <point x="39" y="673" type="line"/>
      <point x="54" y="673"/>
      <point x="87" y="691"/>
      <point x="115" y="712"/>
      <point x="133" y="730"/>
      <point x="133" y="731" type="qcurve"/>
      <point x="227" y="731" type="line"/>
      <point x="227" y="389" type="line"/>
    </contour>
  </outline>
</glyph>
<glyph name="questiondown" format="1">
  <advance width="483"/>
  <unicode hex="00BF"/>
  <outline>
    <contour>
      <point x="377" y="261" type="line"/>
      <point x="377" y="238"/>
      <point x="371" y="196"/>
      <point x="354" y="157"/>
      <point x="322" y="123"/>
      <point x="296" y="109" type="qcurve"/>
      <point x="283" y="101"/>
      <point x="240" y="79"/>
      <point x="199" y="49"/>
      <point x="169" y="10"/>
      <point x="169" y="-14" type="qcurve"/>
      <point x="169" y="-47"/>
      <point x="217" y="-84"/>
      <point x="248" y="-84" type="qcurve"/>
      <point x="268" y="-84"/>
      <point x="299" y="-69"/>
      <point x="324" y="-48"/>
      <point x="342" y="-23"/>
      <point x="349" y="-12" type="qcurve"/>
      <point x="452" y="-84" type="line"/>
      <point x="426" y="-145"/>
      <point x="313" y="-213"/>
      <point x="242" y="-213" type="qcurve"/>
      <point x="204" y="-213"/>
      <point x="128" y="-191"/>
      <point x="68" y="-143"/>
      <point x="30" y="-67"/>
      <point x="30" y="-13" type="qcurve"/>
      <point x="30" y="44"/>
      <point x="77" y="121"/>
      <point x="123" y="150" type="qcurve"/>
      <point x="144" y="163"/>
      <point x="187" y="186"/>
      <point x="223" y="210"/>
      <point x="245" y="240"/>
      <point x="245" y="261" type="qcurve"/>
    </contour>
    <contour>
      <point x="374" y="506" type="line"/>
      <point x="374" y="356" type="line"/>
      <point x="243" y="356" type="line"/>
      <point x="243" y="506" type="line"/>
    </contour>
  </outline>
</glyph>
<glyph name="Atilde" format="1">
  <advance width="670"/>
  <unicode hex="00C3"/>
  <outline>
    <contour>
      <point x="261" y="710" type="line"/>
      <point x="409" y="710" type="line"/>
      <point x="668" y="0" type="line"/>
      <point x="500" y="0" type="line"/>
      <point x="445" y="159" type="line"/>
      <point x="224" y="159" type="line"/>
      <point x="170" y="0" type="line"/>
      <point x="2" y="0" type="line"/>
    </contour>
    <contour>
      <point x="418" y="272" type="line"/>
      <point x="335" y="523" type="line"/>
      <point x="250" y="272" type="line"/>
    </contour>
    <contour>
      <point x="399" y="773" type="qcurve"/>
      <point x="376" y="773"/>
      <point x="341" y="787"/>
      <point x="311" y="805"/>
      <point x="283" y="819"/>
      <point x="266" y="819" type="qcurve"/>
      <point x="249" y="819"/>
      <point x="231" y="805"/>
      <point x="221" y="787"/>
      <point x="219" y="772"/>
      <point x="219" y="771" type="qcurve"/>
      <point x="133" y="771" type="line"/>
      <point x="133" y="782"/>
      <point x="146" y="829"/>
      <point x="176" y="877"/>
      <point x="225" y="913"/>
      <point x="260" y="913" type="qcurve"/>
      <point x="284" y="913"/>
      <point x="318" y="898"/>
      <point x="347" y="880"/>
      <point x="375" y="865"/>
      <point x="393" y="865" type="qcurve"/>
      <point x="410" y="865"/>
      <point x="431" y="880"/>
      <point x="442" y="898"/>
      <point x="445" y="914"/>
      <point x="445" y="915" type="qcurve"/>
      <point x="531" y="915" type="line"/>
      <point x="531" y="907"/>
      <point x="517" y="861"/>
      <point x="486" y="811"/>
      <point x="436" y="773"/>
    </contour>
  </outline>
</glyph>
<glyph name="Otilde" format="1">
  <advance width="760"/>
  <unicode hex="00D5"/>
  <outline>
    <contour>
      <point x="379" y="-6" type="qcurve"/>
      <point x="300" y="-6"/>
      <point x="170" y="56"/>
      <point x="78" y="157"/>
      <point x="27" y="287"/>
      <point x="27" y="356" type="qcurve"/>
      <point x="27" y="426"/>
      <point x="80" y="556"/>
      <point x="175" y="655"/>
      <point x="305" y="714"/>
      <point x="382" y="714" type="qcurve"/>
      <point x="461" y="714"/>
      <point x="591" y="652"/>
      <point x="683" y="550"/>
      <point x="733" y="420"/>
      <point x="733" y="353" type="qcurve"/>
      <point x="733" y="283"/>
      <point x="680" y="153"/>
      <point x="586" y="54"/>
      <point x="456" y="-6"/>
    </contour>
    <contour>
      <point x="194" y="354" type="qcurve"/>
      <point x="194" y="313"/>
      <point x="218" y="236"/>
      <point x="265" y="176"/>
      <point x="335" y="140"/>
      <point x="380" y="140" type="qcurve"/>
      <point x="427" y="140"/>
      <point x="497" y="178"/>
      <point x="543" y="239"/>
      <point x="566" y="316"/>
      <point x="566" y="356" type="qcurve"/>
      <point x="566" y="397"/>
      <point x="542" y="474"/>
      <point x="494" y="533"/>
      <point x="425" y="568"/>
      <point x="380" y="568" type="qcurve"/>
      <point x="333" y="568"/>
      <point x="264" y="531"/>
      <point x="217" y="471"/>
      <point x="194" y="394"/>
    </contour>
    <contour>
      <point x="448" y="773" type="qcurve"/>
      <point x="425" y="773"/>
      <point x="390" y="787"/>
      <point x="360" y="805"/>
      <point x="332" y="819"/>
      <point x="315" y="819" type="qcurve"/>
      <point x="298" y="819"/>
      <point x="280" y="805"/>
      <point x="270" y="787"/>
      <point x="268" y="772"/>
      <point x="268" y="771" type="qcurve"/>
      <point x="182" y="771" type="line"/>
      <point x="182" y="782"/>
      <point x="195" y="829"/>
      <point x="225" y="877"/>
      <point x="274" y="913"/>
      <point x="309" y="913" type="qcurve"/>
      <point x="333" y="913"/>
      <point x="367" y="898"/>
      <point x="396" y="880"/>
      <point x="424" y="865"/>
      <point x="442" y="865" type="qcurve"/>
      <point x="459" y="865"/>
      <point x="480" y="880"/>
      <point x="491" y="898"/>
      <point x="494" y="914"/>
      <point x="494" y="915" type="qcurve"/>
      <point x="580" y="915" type="line"/>
      <point x="580" y="907"/>
      <point x="566" y="861"/>
      <point x="535" y="811"/>
      <point x="485" y="773"/>
    </contour>
  </outline>
</glyph>
<glyph name="multiply" format="1">
  <advance width="484"/>
  <unicode hex="00D7"/>
  <outline>
    <contour>
      <point x="437" y="181" type="line"/>
      <point x="337" y="82" type="line"/>
      <point x="241" y="177" type="line"/>
      <point x="146" y="82" type="line"/>
      <point x="47" y="181" type="line"/>
      <point x="141" y="276" type="line"/>
      <point x="52" y="367" type="line"/>
      <point x="152" y="466" type="line"/>
      <point x="242" y="376" type="line"/>
      <point x="332" y="466" type="line"/>
      <point x="431" y="367" type="line"/>
      <point x="341" y="277" type="line"/>
    </contour>
  </outline>
</glyph>
<glyph name="germandbls" format="1">
  <advance width="560"/>
  <unicode hex="00DF"/>
  <outline>
    <contour>
      <point x="250" y="141" type="line"/>
      <point x="301" y="141"/>
      <point x="368" y="185"/>
      <point x="368" y="231" type="qcurve"/>
      <point x="368" y="253"/>
      <point x="351" y="286"/>
      <point x="324" y="308"/>
      <point x="291" y="319"/>
      <point x="275" y="319" type="qcurve"/>
      <point x="253" y="319" type="line"/>
      <point x="253" y="462" type="line"/>
      <point x="274" y="462" type="line"/>
      <point x="303" y="462"/>
      <point x="333" y="494"/>
      <point x="333" y="520" type="qcurve"/>
      <point x="333" y="539"/>
      <point x="319" y="562"/>
      <point x="299" y="575"/>
      <point x="278" y="579"/>
      <point x="271" y="579" type="qcurve"/>
      <point x="251" y="579"/>
      <point x="226" y="562"/>
      <point x="212" y="537"/>
      <point x="207" y="508"/>
      <point x="207" y="497" type="qcurve"/>
      <point x="207" y="0" type="line"/>
      <point x="55" y="0" type="line"/>
      <point x="55" y="525" type="line"/>
      <point x="55" y="566"/>
      <point x="90" y="635"/>
      <point x="152" y="686"/>
      <point x="236" y="714"/>
      <point x="285" y="714" type="qcurve"/>
      <point x="328" y="714"/>
      <point x="401" y="691"/>
      <point x="455" y="649"/>
      <point x="485" y="587"/>
      <point x="485" y="548" type="qcurve"/>
      <point x="485" y="522"/>
      <point x="472" y="476"/>
      <point x="450" y="438"/>
      <point x="421" y="410"/>
      <point x="405" y="403" type="qcurve"/>
      <point x="466" y="383"/>
      <point x="536" y="284"/>
      <point x="536" y="212" type="qcurve"/>
      <point x="536" y="151"/>
      <point x="487" y="68"/>
      <point x="406" y="17"/>
      <point x="304" y="-6"/>
      <point x="250" y="-6" type="qcurve"/>
    </contour>
  </outline>
</glyph>
<glyph name="Itilde" format="1">
  <advance width="300"/>
  <unicode hex="0128"/>
  <outline>
    <contour>
      <point x="68" y="0" type="line"/>
      <point x="68" y="710" type="line"/>
      <point x="232" y="710" type="line"/>
      <point x="232" y="0" type="line"/>
    </contour>
    <contour>
      <point x="213" y="773" type="qcurve"/>
      <point x="190" y="773"/>
      <point x="155" y="787"/>
      <point x="125" y="805"/>
      <point x="97" y="819"/>
      <point x="80" y="819" type="qcurve"/>
      <point x="63" y="819"/>
      <point x="45" y="805"/>
      <point x="35" y="787"/>
      <point x="33" y="772"/>
      <point x="33" y="771" type="qcurve"/>
      <point x="-53" y="771" type="line"/>
      <point x="-53" y="782"/>
      <point x="-40" y="829"/>
      <point x="-10" y="877"/>
      <point x="39" y="913"/>
      <point x="74" y="913" type="qcurve"/>
      <point x="98" y="913"/>
      <point x="132" y="898"/>
      <point x="161" y="880"/>
      <point x="189" y="865"/>
      <point x="207" y="865" type="qcurve"/>
      <point x="224" y="865"/>
      <point x="245" y="880"/>
      <point x="256" y="898"/>
      <point x="259" y="914"/>
      <point x="259" y="915" type="qcurve"/>
      <point x="345" y="915" type="line"/>
      <point x="345" y="907"/>
      <point x="331" y="861"/>
      <point x="300" y="811"/>
      <point x="250" y="773"/>
    </contour>
  </outline>
</glyph>
<glyph name="imacron" format="1">
  <advance width="270"/>
  <unicode hex="012B"/>
  <outline>
    <contour>
      <point x="55" y="0" type="line"/>
      <point x="55" y="525" type="line"/>
      <point x="215" y="525" type="line"/>
      <point x="215" y="0" type="line"/>
    </contour>
    <contour>
      <point x="-16" y="621" type="line"/>
      <point x="-16" y="718" type="line"/>
      <point x="288" y="718" type="line"/>
      <point x="288" y="621" type="line"/>
    </contour>
  </outline>
</glyph>
<glyph name="ij" format="1">
  <advance width="544"/>
  <unicode hex="0133"/>
  <outline>
    <contour>
      <point x="55" y="0" type="line"/>
      <point x="55" y="525" type="line"/>
      <point x="215" y="525" type="line"/>
      <point x="215" y="0" type="line"/>
    </contour>
    <contour>
      <point x="55" y="585" type="line"/>
      <point x="55" y="730" type="line"/>
      <point x="215" y="730" type="line"/>
      <point x="215" y="585" type="line"/>
    </contour>
    <contour>
      <point x="297" y="-202" type="qcurve"/>
      <point x="257" y="-202"/>
      <point x="185" y="-177"/>
      <point x="156" y="-152" type="qcurve"/>
      <point x="223" y="-43" type="line"/>
      <point x="234" y="-54"/>
      <point x="262" y="-64"/>
      <point x="277" y="-64" type="qcurve"/>
      <point x="300" y="-64"/>
      <point x="330" y="-34"/>
      <point x="330" y="-9" type="qcurve"/>
      <point x="330" y="525" type="line"/>
      <point x="490" y="525" type="line"/>
      <point x="490" y="3" type="line"/>
      <point x="490" y="-42"/>
      <point x="461" y="-118"/>
      <point x="409" y="-172"/>
      <point x="338" y="-202"/>
    </contour>
    <contour>
      <point x="330" y="585" type="line"/>
      <point x="330" y="730" type="line"/>
      <point x="490" y="730" type="line"/>
      <point x="490" y="585" type="line"/>
    </contour>
  </outline>
</glyph>
<glyph name="lcommaaccent" format="1">
  <advance width="335"/>
  <unicode hex="013C"/>
  <outline>
    <contour>
      <point x="142" y="-213" type="line"/>
      <point x="173" y="-146" type="line"/>
      <point x="125" y="-146" type="line"/>
      <point x="125" y="-47" type="line"/>
      <point x="259" y="-47" type="line"/>
      <point x="259" y="-146" type="line"/>
      <point x="212" y="-213" type="line"/>
    </contour>
    <contour>
      <point x="53" y="730" type="line"/>
      <point x="213" y="730" type="line"/>
      <point x="213" y="187" type="line"/>
      <point x="213" y="127"/>
      <point x="264" y="127" type="qcurve"/>
      <point x="276" y="127"/>
      <point x="305" y="134"/>
      <point x="317" y="141" type="qcurve"/>
      <point x="338" y="21" type="line"/>
      <point x="308" y="7"/>
      <point x="230" y="-9"/>
      <point x="196" y="-9" type="qcurve"/>
      <point x="127" y="-9"/>
      <point x="53" y="63"/>
      <point x="53" y="131" type="qcurve"/>
    </contour>
  </outline>
</glyph>
<glyph name="lcaron" format="1">
  <advance width="335"/>
  <unicode hex="013E"/>
  <outline>
    <contour>
      <point x="352" y="571" type="line"/>
      <point x="250" y="599" type="line"/>
      <point x="302" y="729" type="line"/>
      <point x="447" y="729" type="line"/>
    </contour>
    <contour>
      <point x="53" y="730" type="line"/>
      <point x="213" y="730" type="line"/>
      <point x="213" y="187" type="line"/>
      <point x="213" y="127"/>
      <point x="264" y="127" type="qcurve"/>
      <point x="276" y="127"/>
      <point x="305" y="134"/>
      <point x="317" y="141" type="qcurve"/>
      <point x="338" y="21" type="line"/>
      <point x="308" y="7"/>
      <point x="230" y="-9"/>
      <point x="196" y="-9" type="qcurve"/>
      <point x="127" y="-9"/>
      <point x="53" y="63"/>
      <point x="53" y="131" type="qcurve"/>
    </contour>
  </outline>
</glyph>
<glyph name="Nacute" format="1">
  <advance width="759"/>
  <unicode hex="0143"/>
  <outline>
    <contour>
      <point x="424" y="756" type="line"/>
      <point x="322" y="784" type="line"/>
      <point x="374" y="914" type="line"/>
      <point x="519" y="914" type="line"/>
    </contour>
    <contour>
      <point x="232" y="406" type="line"/>
      <point x="232" y="0" type="line"/>
      <point x="68" y="0" type="line"/>
      <point x="68" y="710" type="line"/>
      <point x="196" y="710" type="line"/>
      <point x="527" y="293" type="line"/>
      <point x="527" y="710" type="line"/>
      <point x="691" y="710" type="line"/>
      <point x="691" y="0" type="line"/>
      <point x="559" y="0" type="line"/>
    </contour>
  </outline>
</glyph>
<glyph name="Eng" format="1">
  <advance width="743"/>
  <unicode hex="014A"/>
  <outline>
    <contour>
      <point x="232" y="401" type="line"/>
      <point x="232" y="0" type="line"/>
      <point x="68" y="0" type="line"/>
      <point x="68" y="710" type="line"/>
      <point x="194" y="710" type="line"/>
      <point x="510" y="301" type="line"/>
      <point x="510" y="709" type="line"/>
      <point x="674" y="709" type="line"/>
      <point x="674" y="-2" type="line"/>
      <point x="674" y="-47"/>
      <point x="644" y="-121"/>
      <point x="591" y="-174"/>
      <point x="521" y="-202"/>
      <point x="481" y="-202" type="qcurve"/>
      <point x="442" y="-202"/>
      <point x="370" y="-177"/>
      <point x="341" y="-152" type="qcurve"/>
      <point x="408" y="-43" type="line"/>
      <point x="418" y="-54"/>
      <point x="446" y="-64"/>
      <point x="461" y="-64" type="qcurve"/>
      <point x="484" y="-64"/>
      <point x="514" y="-34"/>
      <point x="514" y="-9" type="qcurve"/>
      <point x="514" y="35" type="line"/>
    </contour>
  </outline>
</glyph>
<glyph name="Rcaron" format="1">
  <advance width="670"/>
  <unicode hex="0158"/>
  <outline>
    <contour>
      <point x="234" y="914" type="line"/>
      <point x="319" y="851" type="line"/>
      <point x="404" y="914" type="line"/>
      <point x="486" y="877" type="line"/>
      <point x="377" y="770" type="line"/>
      <point x="262" y="770" type="line"/>
      <point x="152" y="877" type="line"/>
    </contour>
    <contour>
      <point x="68" y="0" type="line"/>
      <point x="68" y="710" type="line"/>
      <point x="388" y="710" type="line"/>
      <point x="438" y="710"/>
      <point x="523" y="668"/>
      <point x="585" y="600"/>
      <point x="620" y="514"/>
      <point x="620" y="470" type="qcurve"/>
      <point x="620" y="437"/>
      <point x="604" y="376"/>
      <point x="574" y="322"/>
      <point x="531" y="279"/>
      <point x="504" y="264" type="qcurve"/>
      <point x="660" y="0" type="line"/>
      <point x="475" y="0" type="line"/>
      <point x="339" y="229" type="line"/>
      <point x="232" y="229" type="line"/>
      <point x="232" y="0" type="line"/>
    </contour>
    <contour>
      <point x="232" y="372" type="line"/>
      <point x="382" y="372" type="line"/>
      <point x="411" y="372"/>
      <point x="453" y="427"/>
      <point x="453" y="470" type="qcurve"/>
      <point x="453" y="514"/>
      <point x="405" y="566"/>
      <point x="377" y="566" type="qcurve"/>
      <point x="232" y="566" type="line"/>
    </contour>
  </outline>
</glyph>
<glyph name="rcaron" format="1">
  <advance width="400"/>
  <unicode hex="0159"/>
  <outline>
    <contour>
      <point x="160" y="730" type="line"/>
      <point x="245" y="667" type="line"/>
      <point x="330" y="730" type="line"/>
      <point x="412" y="693" type="line"/>
      <point x="303" y="586" type="line"/>
      <point x="188" y="586" type="line"/>
      <point x="78" y="693" type="line"/>
    </contour>
    <contour>
      <point x="388" y="388" type="line"/>
      <point x="330" y="387"/>
      <point x="236" y="351"/>
      <point x="215" y="315" type="qcurve"/>
      <point x="215" y="0" type="line"/>
      <point x="55" y="0" type="line"/>
      <point x="55" y="525" type="line"/>
      <point x="202" y="525" type="line"/>
      <point x="202" y="419" type="line"/>
      <point x="229" y="472"/>
      <point x="314" y="532"/>
      <point x="362" y="533" type="qcurve"/>
      <point x="373" y="533"/>
      <point x="383" y="533"/>
      <point x="388" y="532" type="qcurve"/>
    </contour>
  </outline>
</glyph>
<glyph name="utilde" format="1">
  <advance width="627"/>
  <unicode hex="0169"/>
  <outline>
    <contour>
      <point x="214" y="-10" type="qcurve"/>
      <point x="133" y="-10"/>
      <point x="50" y="91"/>
      <point x="50" y="189" type="qcurve"/>
      <point x="50" y="525" type="line"/>
      <point x="210" y="525" type="line"/>
      <point x="210" y="224" type="line"/>
      <point x="210" y="176"/>
      <point x="248" y="125"/>
      <point x="283" y="125" type="qcurve"/>
      <point x="315" y="125"/>
      <point x="375" y="159"/>
      <point x="398" y="201" type="qcurve"/>
      <point x="398" y="525" type="line"/>
      <point x="558" y="525" type="line"/>
      <point x="558" y="180" type="line"/>
      <point x="558" y="156"/>
      <point x="573" y="137"/>
      <point x="592" y="135" type="qcurve"/>
      <point x="592" y="0" type="line"/>
      <point x="569" y="-5"/>
      <point x="537" y="-8"/>
      <point x="524" y="-8" type="qcurve"/>
      <point x="438" y="-8"/>
      <point x="426" y="59" type="qcurve"/>
      <point x="423" y="91" type="line"/>
      <point x="387" y="39"/>
      <point x="280" y="-10"/>
    </contour>
    <contour>
      <point x="368" y="588" type="qcurve"/>
      <point x="345" y="588"/>
      <point x="310" y="602"/>
      <point x="280" y="620"/>
      <point x="252" y="634"/>
      <point x="235" y="634" type="qcurve"/>
      <point x="218" y="634"/>
      <point x="200" y="620"/>
      <point x="190" y="602"/>
      <point x="188" y="587"/>
      <point x="188" y="586" type="qcurve"/>
      <point x="102" y="586" type="line"/>
      <point x="102" y="597"/>
      <point x="115" y="644"/>
      <point x="145" y="692"/>
      <point x="194" y="728"/>
      <point x="229" y="728" type="qcurve"/>
      <point x="253" y="728"/>
      <point x="287" y="713"/>
      <point x="316" y="695"/>
      <point x="344" y="680"/>
      <point x="362" y="680" type="qcurve"/>
      <point x="379" y="680"/>
      <point x="400" y="695"/>
      <point x="411" y="713"/>
      <point x="414" y="729"/>
      <point x="414" y="730" type="qcurve"/>
      <point x="500" y="730" type="line"/>
      <point x="500" y="722"/>
      <point x="486" y="676"/>
      <point x="455" y="626"/>
      <point x="405" y="588"/>
    </contour>
  </outline>
</glyph>
<glyph name="gacute" format="1">
  <advance width="640"/>
  <unicode hex="01F5"/>
  <outline>
    <contour>
      <point x="363" y="572" type="line"/>
      <point x="261" y="600" type="line"/>
      <point x="313" y="730" type="line"/>
      <point x="458" y="730" type="line"/>
    </contour>
    <contour>
      <point x="259" y="-2" type="qcurve"/>
      <point x="207" y="-2"/>
      <point x="121" y="40"/>
      <point x="60" y="112"/>
      <point x="26" y="208"/>
      <point x="26" y="263" type="qcurve"/>
      <point x="26" y="321"/>
      <point x="62" y="420"/>
      <point x="126" y="493"/>
      <point x="216" y="535"/>
      <point x="270" y="535" type="qcurve"/>
      <point x="330" y="535"/>
      <point x="419" y="484"/>
      <point x="446" y="439" type="qcurve"/>
      <point x="446" y="525" type="line"/>
      <point x="585" y="525" type="line"/>
      <point x="585" y="36" type="line"/>
      <point x="585" y="-24"/>
      <point x="540" y="-120"/>
      <point x="460" y="-187"/>
      <point x="348" y="-223"/>
      <point x="281" y="-223" type="qcurve"/>
      <point x="196" y="-223"/>
      <point x="76" y="-169"/>
      <point x="31" y="-118" type="qcurve"/>
      <point x="117" y="-31" type="line"/>
      <point x="146" y="-64"/>
      <point x="232" y="-103"/>
      <point x="281" y="-103" type="qcurve"/>
      <point x="310" y="-103"/>
      <point x="362" y="-87"/>
      <point x="402" y="-54"/>
      <point x="425" y="-1"/>
      <point x="425" y="36" type="qcurve"/>
      <point x="425" y="87" type="line"/>
      <point x="401" y="43"/>
      <point x="311" y="-2"/>
    </contour>
    <contour>
      <point x="314" y="125" type="qcurve"/>
      <point x="351" y="125"/>
      <point x="409" y="166"/>
      <point x="425" y="198" type="qcurve"/>
      <point x="425" y="308" type="line"/>
      <point x="409" y="350"/>
      <point x="343" y="399"/>
      <point x="306" y="399" type="qcurve"/>
      <point x="280" y="399"/>
      <point x="237" y="376"/>
      <point x="206" y="337"/>
      <point x="189" y="286"/>
      <point x="189" y="259" type="qcurve"/>
      <point x="189" y="230"/>
      <point x="208" y="181"/>
      <point x="242" y="145"/>
      <point x="287" y="125"/>
    </contour>
  </outline>
</glyph>
<glyph name="Aringacute" format="1">
  <advance width="670"/>
  <unicode hex="01FA"/>
  <outline>
    <contour>
      <point x="413" y="804" type="line"/>
      <point x="441" y="784"/>
      <point x="441" y="744" type="qcurve"/>
      <point x="441" y="709"/>
      <point x="417" y="687" type="qcurve"/>
      <point x="668" y="0" type="line"/>
      <point x="500" y="0" type="line"/>
      <point x="445" y="159" type="line"/>
      <point x="224" y="159" type="line"/>
      <point x="170" y="0" type="line"/>
      <point x="2" y="0" type="line"/>
      <point x="252" y="687" type="line"/>
      <point x="228" y="706"/>
      <point x="228" y="744" type="qcurve"/>
      <point x="228" y="777"/>
      <point x="267" y="816"/>
      <point x="301" y="823" type="qcurve"/>
      <point x="344" y="918" type="line"/>
      <point x="489" y="918" type="line"/>
    </contour>
    <contour>
      <point x="418" y="272" type="line"/>
      <point x="335" y="523" type="line"/>
      <point x="250" y="272" type="line"/>
    </contour>
    <contour>
      <point x="335" y="779" type="qcurve"/>
      <point x="318" y="779"/>
      <point x="295" y="760"/>
      <point x="295" y="745" type="qcurve"/>
      <point x="295" y="730"/>
      <point x="318" y="710"/>
      <point x="335" y="710" type="qcurve"/>
      <point x="351" y="710"/>
      <point x="375" y="729"/>
      <point x="375" y="745" type="qcurve"/>
      <point x="375" y="760"/>
      <point x="352" y="779"/>
    </contour>
  </outline>
</glyph>
<glyph name="AEacute" format="1">
  <advance width="968"/>
  <unicode hex="01FC"/>
  <outline>
    <contour>
      <point x="643" y="757" type="line"/>
      <point x="541" y="785" type="line"/>
      <point x="593" y="915" type="line"/>
      <point x="738" y="915" type="line"/>
    </contour>
    <contour>
      <point x="412" y="710" type="line"/>
      <point x="927" y="710" type="line"/>
      <point x="927" y="566" type="line"/>
      <point x="618" y="566" type="line"/>
      <point x="618" y="433" type="line"/>
      <point x="873" y="433" type="line"/>
      <point x="873" y="290" type="line"/>
      <point x="618" y="290" type="line"/>
      <point x="618" y="144" type="line"/>
      <point x="936" y="144" type="line"/>
      <point x="936" y="0" type="line"/>
      <point x="455" y="0" type="line"/>
      <point x="455" y="159" type="line"/>
      <point x="240" y="159" type="line"/>
      <point x="149" y="0" type="line"/>
      <point x="-26" y="0" type="line"/>
    </contour>
    <contour>
      <point x="442" y="303" type="line"/>
      <point x="442" y="527" type="line"/>
      <point x="309" y="303" type="line"/>
    </contour>
  </outline>
</glyph>
<glyph name="rdblgrave" format="1">
  <advance width="400"/>
  <unicode hex="0211"/>
  <outline>
    <contour>
      <point x="208" y="730" type="line"/>
      <point x="329" y="730" type="line"/>
      <point x="373" y="600" type="line"/>
      <point x="296" y="572" type="line"/>
    </contour>
    <contour>
      <point x="34" y="730" type="line"/>
      <point x="154" y="730" type="line"/>
      <point x="199" y="600" type="line"/>
      <point x="121" y="572" type="line"/>
    </contour>
    <contour>
      <point x="388" y="388" type="line"/>
      <point x="330" y="387"/>
      <point x="236" y="351"/>
      <point x="215" y="315" type="qcurve"/>
      <point x="215" y="0" type="line"/>
      <point x="55" y="0" type="line"/>
      <point x="55" y="525" type="line"/>
      <point x="202" y="525" type="line"/>
      <point x="202" y="419" type="line"/>
      <point x="229" y="472"/>
      <point x="314" y="532"/>
      <point x="362" y="533" type="qcurve"/>
      <point x="373" y="533"/>
      <point x="383" y="533"/>
      <point x="388" y="532" type="qcurve"/>
    </contour>
  </outline>
</glyph>
<glyph name="rinvertedbreve" format="1">
  <advance width="400"/>
  <unicode hex="0213"/>
  <outline>
    <contour>
      <point x="218" y="660" type="qcurve"/>
      <point x="194" y="660"/>
      <point x="159" y="615"/>
      <point x="159" y="583" type="qcurve"/>
      <point x="74" y="583" type="line"/>
      <point x="74" y="615"/>
      <point x="95" y="669"/>
      <point x="134" y="708"/>
      <point x="186" y="730"/>
      <point x="218" y="730" type="qcurve"/>
      <point x="250" y="730"/>
      <point x="303" y="708"/>
      <point x="341" y="669"/>
      <point x="362" y="615"/>
      <point x="362" y="583" type="qcurve"/>
      <point x="279" y="583" type="line"/>
      <point x="276" y="617"/>
      <point x="241" y="660"/>
    </contour>
    <contour>
      <point x="388" y="388" type="line"/>
      <point x="330" y="387"/>
      <point x="236" y="351"/>
      <point x="215" y="315" type="qcurve"/>
      <point x="215" y="0" type="line"/>
      <point x="55" y="0" type="line"/>
      <point x="55" y="525" type="line"/>
      <point x="202" y="525" type="line"/>
      <point x="202" y="419" type="line"/>
      <point x="229" y="472"/>
      <point x="314" y="532"/>
      <point x="362" y="533" type="qcurve"/>
      <point x="373" y="533"/>
      <point x="383" y="533"/>
      <point x="388" y="532" type="qcurve"/>
    </contour>
  </outline>
</glyph>
<glyph name="Uinvertedbreve" format="1">
  <advance width="747"/>
  <unicode hex="0216"/>
  <outline>
    <contour>
      <point x="372" y="845" type="qcurve"/>
      <point x="348" y="845"/>
      <point x="313" y="800"/>
      <point x="313" y="768" type="qcurve"/>
      <point x="228" y="768" type="line"/>
      <point x="228" y="800"/>
      <point x="249" y="854"/>
      <point x="288" y="893"/>
      <point x="340" y="915"/>
      <point x="372" y="915" type="qcurve"/>
      <point x="404" y="915"/>
      <point x="457" y="893"/>
      <point x="495" y="854"/>
      <point x="516" y="800"/>
      <point x="516" y="768" type="qcurve"/>
      <point x="433" y="768" type="line"/>
      <point x="430" y="802"/>
      <point x="395" y="845"/>
    </contour>
    <contour>
      <point x="373" y="140" type="qcurve"/>
      <point x="415" y="140"/>
      <point x="473" y="175"/>
      <point x="509" y="233"/>
      <point x="524" y="308"/>
      <point x="524" y="347" type="qcurve"/>
      <point x="524" y="710" type="line"/>
      <point x="688" y="710" type="line"/>
      <point x="688" y="347" type="line"/>
      <point x="688" y="273"/>
      <point x="651" y="145"/>
      <point x="574" y="49"/>
      <point x="455" y="-6"/>
      <point x="373" y="-6" type="qcurve"/>
      <point x="288" y="-6"/>
      <point x="168" y="52"/>
      <point x="93" y="149"/>
      <point x="58" y="277"/>
      <point x="58" y="347" type="qcurve"/>
      <point x="58" y="710" type="line"/>
      <point x="222" y="710" type="line"/>
      <point x="222" y="347" type="line"/>
      <point x="222" y="306"/>
      <point x="238" y="232"/>
      <point x="274" y="174"/>
      <point x="331" y="140"/>
    </contour>
  </outline>
</glyph>
<glyph name="uni0311" format="1">
  <advance width="347"/>
  <unicode hex="0311"/>
  <outline>
    <contour>
      <point x="173" y="525" type="move" name="_top"/>
    </contour>
    <contour>
      <point x="173" y="660" type="qcurve"/>
      <point x="149" y="660"/>
      <point x="114" y="615"/>
      <point x="114" y="583" type="qcurve"/>
      <point x="29" y="583" type="line"/>
      <point x="29" y="615"/>
      <point x="50" y="669"/>
      <point x="89" y="708"/>
      <point x="141" y="730"/>
      <point x="173" y="730" type="qcurve"/>
      <point x="205" y="730"/>
      <point x="258" y="708"/>
      <point x="296" y="669"/>
      <point x="317" y="615"/>
      <point x="317" y="583" type="qcurve"/>
      <point x="234" y="583" type="line"/>
      <point x="231" y="617"/>
      <point x="196" y="660"/>
    </contour>
  </outline>
</glyph>
<glyph name="uni0407" format="1">
  <advance width="307"/>
  <unicode hex="0407"/>
  <outline>
    <contour>
      <point x="71" y="0" type="line"/>
      <point x="71" y="710" type="line"/>
      <point x="235" y="710" type="line"/>
      <point x="235" y="0" type="line"/>
    </contour>
    <contour>
      <point x="-18" y="779" type="line"/>
      <point x="-18" y="908" type="line"/>
      <point x="114" y="908" type="line"/>
      <point x="114" y="779" type="line"/>
    </contour>
    <contour>
      <point x="192" y="779" type="line"/>
      <point x="192" y="908" type="line"/>
      <point x="324" y="908" type="line"/>
      <point x="324" y="779" type="line"/>
    </contour>
  </outline>
</glyph>
<glyph name="uni0414" format="1">
  <advance width="781"/>
  <unicode hex="0414"/>
  <outline>
    <contour>
      <point x="17" y="144" type="line"/>
      <point x="50" y="144" type="line"/>
      <point x="77" y="144"/>
      <point x="118" y="178"/>
      <point x="148" y="260"/>
      <point x="171" y="399"/>
      <point x="180" y="506" type="qcurve"/>
      <point x="198" y="710" type="line"/>
      <point x="659" y="710" type="line"/>
      <point x="659" y="144" type="line"/>
      <point x="762" y="144" type="line"/>
      <point x="762" y="-172" type="line"/>
      <point x="604" y="-172" type="line"/>
      <point x="604" y="0" type="line"/>
      <point x="174" y="0" type="line"/>
      <point x="174" y="-172" type="line"/>
      <point x="17" y="-172" type="line"/>
    </contour>
    <contour>
      <point x="495" y="144" type="line"/>
      <point x="495" y="566" type="line"/>
      <point x="346" y="566" type="line"/>
      <point x="337" y="464" type="line"/>
      <point x="326" y="348"/>
      <point x="291" y="192"/>
      <point x="263" y="144" type="qcurve"/>
    </contour>
  </outline>
</glyph>
<glyph name="uni0419" format="1">
  <advance width="763"/>
  <unicode hex="0419"/>
  <outline>
    <contour>
      <point x="590" y="916" type="line"/>
      <point x="590" y="883"/>
      <point x="562" y="828"/>
      <point x="511" y="789"/>
      <point x="441" y="767"/>
      <point x="398" y="767" type="qcurve"/>
      <point x="355" y="767"/>
      <point x="285" y="789"/>
      <point x="234" y="828"/>
      <point x="206" y="883"/>
      <point x="206" y="916" type="qcurve"/>
      <point x="305" y="916" type="line"/>
      <point x="305" y="903"/>
      <point x="320" y="880"/>
      <point x="345" y="863"/>
      <point x="379" y="853"/>
      <point x="398" y="853" type="qcurve"/>
      <point x="434" y="853"/>
      <point x="487" y="889"/>
      <point x="492" y="916" type="qcurve"/>
    </contour>
    <contour>
      <point x="236" y="255" type="line"/>
      <point x="570" y="710" type="line"/>
      <point x="692" y="710" type="line"/>
      <point x="692" y="0" type="line"/>
      <point x="528" y="0" type="line"/>
      <point x="528" y="444" type="line"/>
      <point x="198" y="0" type="line"/>
      <point x="71" y="0" type="line"/>
      <point x="71" y="710" type="line"/>
      <point x="236" y="710" type="line"/>
    </contour>
  </outline>
</glyph>
<glyph name="uni041B" format="1">
  <advance width="714"/>
  <unicode hex="041B"/>
  <outline>
    <contour>
      <point x="321" y="464" type="line"/>
      <point x="308" y="329"/>
      <point x="269" y="148"/>
      <point x="201" y="39"/>
      <point x="95" y="-7"/>
      <point x="16" y="-7" type="qcurve"/>
      <point x="11" y="137" type="line"/>
      <point x="47" y="141"/>
      <point x="96" y="168"/>
      <point x="130" y="245"/>
      <point x="153" y="387"/>
      <point x="164" y="506" type="qcurve"/>
      <point x="182" y="710" type="line"/>
      <point x="643" y="710" type="line"/>
      <point x="643" y="0" type="line"/>
      <point x="479" y="0" type="line"/>
      <point x="479" y="566" type="line"/>
      <point x="331" y="566" type="line"/>
    </contour>
  </outline>
</glyph>
<glyph name="uni0425" format="1">
  <advance width="651"/>
  <unicode hex="0425"/>
  <outline>
    <contour>
      <point x="171" y="710" type="line"/>
      <point x="326" y="465" type="line"/>
      <point x="481" y="710" type="line"/>
      <point x="658" y="710" type="line"/>
      <point x="412" y="350" type="line"/>
      <point x="650" y="0" type="line"/>
      <point x="473" y="0" type="line"/>
      <point x="326" y="235" type="line"/>
      <point x="179" y="0" type="line"/>
      <point x="1" y="0" type="line"/>
      <point x="239" y="350" type="line"/>
      <point x="-7" y="710" type="line"/>
    </contour>
  </outline>
</glyph>
<glyph name="uni042A" format="1">
  <advance width="766"/>
  <unicode hex="042A"/>
  <outline>
    <contour>
      <point x="11" y="710" type="line"/>
      <point x="365" y="710" type="line"/>
      <point x="365" y="467" type="line"/>
      <point x="492" y="467" type="line"/>
      <point x="549" y="467"/>
      <point x="642" y="436"/>
      <point x="708" y="377"/>
      <point x="744" y="291"/>
      <point x="744" y="237" type="qcurve"/>
      <point x="744" y="181"/>
      <point x="708" y="93"/>
      <point x="644" y="32"/>
      <point x="554" y="0"/>
      <point x="499" y="0" type="qcurve"/>
      <point x="201" y="0" type="line"/>
      <point x="201" y="574" type="line"/>
      <point x="11" y="574" type="line"/>
    </contour>
    <contour>
      <point x="365" y="139" type="line"/>
      <point x="479" y="139" type="line"/>
      <point x="527" y="139"/>
      <point x="577" y="192"/>
      <point x="577" y="238" type="qcurve"/>
      <point x="577" y="280"/>
      <point x="527" y="337"/>
      <point x="479" y="337" type="qcurve"/>
      <point x="365" y="337" type="line"/>
    </contour>
  </outline>
</glyph>
<glyph name="uni0432" format="1">
  <advance width="574"/>
  <unicode hex="0432"/>
  <outline>
    <contour>
      <point x="394" y="525" type="line"/>
      <point x="424" y="525"/>
      <point x="472" y="503"/>
      <point x="506" y="466"/>
      <point x="525" y="417"/>
      <point x="525" y="391" type="qcurve"/>
      <point x="525" y="356"/>
      <point x="488" y="289"/>
      <point x="446" y="272" type="qcurve"/>
      <point x="493" y="258"/>
      <point x="548" y="195"/>
      <point x="548" y="139" type="qcurve"/>
      <point x="548" y="65"/>
      <point x="440" y="0"/>
      <point x="346" y="0" type="qcurve"/>
      <point x="57" y="0" type="line"/>
      <point x="57" y="525" type="line"/>
    </contour>
    <contour>
      <point x="316" y="309" type="line"/>
      <point x="339" y="309"/>
      <point x="367" y="334"/>
      <point x="367" y="360" type="qcurve"/>
      <point x="367" y="381"/>
      <point x="341" y="410"/>
      <point x="318" y="410" type="qcurve"/>
      <point x="217" y="410" type="line"/>
      <point x="217" y="309" type="line"/>
    </contour>
    <contour>
      <point x="336" y="115" type="line"/>
      <point x="358" y="115"/>
      <point x="387" y="145"/>
      <point x="387" y="168" type="qcurve"/>
      <point x="387" y="193"/>
      <point x="359" y="223"/>
      <point x="336" y="223" type="qcurve"/>
      <point x="217" y="223" type="line"/>
      <point x="217" y="115" type="line"/>
    </contour>
  </outline>
</glyph>
<glyph name="uni043F" format="1">
  <advance width="594"/>
  <unicode hex="043F"/>
  <outline>
    <contour>
      <point x="537" y="0" type="line"/>
      <point x="378" y="0" type="line"/>
      <point x="378" y="386" type="line"/>
      <point x="216" y="386" type="line"/>
      <point x="216" y="0" type="line"/>
      <point x="57" y="0" type="line"/>
      <point x="57" y="525" type="line"/>
      <point x="537" y="525" type="line"/>
    </contour>
  </outline>
</glyph>
<glyph name="uni044C" format="1">
  <advance width="546"/>
  <unicode hex="044C"/>
  <outline>
    <contour>
      <point x="57" y="525" type="line"/>
      <point x="216" y="525" type="line"/>
      <point x="216" y="367" type="line"/>
      <point x="320" y="367" type="line"/>
      <point x="368" y="367"/>
      <point x="445" y="342"/>
      <point x="501" y="296"/>
      <point x="531" y="229"/>
      <point x="531" y="187" type="qcurve"/>
      <point x="531" y="143"/>
      <point x="502" y="74"/>
      <point x="449" y="26"/>
      <point x="374" y="0"/>
      <point x="328" y="0" type="qcurve"/>
      <point x="57" y="0" type="line"/>
    </contour>
    <contour>
      <point x="306" y="123" type="line"/>
      <point x="335" y="123"/>
      <point x="369" y="154"/>
      <point x="369" y="183" type="qcurve"/>
      <point x="369" y="212"/>
      <point x="334" y="245"/>
      <point x="306" y="245" type="qcurve"/>
      <point x="216" y="245" type="line"/>
      <point x="216" y="123" type="line"/>
    </contour>
  </outline>
</glyph>
<glyph name="uni044E" format="1">
  <advance width="808"/>
  <unicode hex="044E"/>
  <outline>
    <contour>
      <point x="284" y="337" type="line"/>
      <point x="294" y="383"/>
      <point x="339" y="456"/>
      <point x="403" y="507"/>
      <point x="484" y="535"/>
      <point x="531" y="535" type="qcurve"/>
      <point x="588" y="535"/>
      <point x="681" y="495"/>
      <point x="747" y="422"/>
      <point x="783" y="320"/>
      <point x="783" y="259" type="qcurve"/>
      <point x="783" y="195"/>
      <point x="745" y="95"/>
      <point x="677" y="26"/>
      <point x="585" y="-10"/>
      <point x="530" y="-10" type="qcurve"/>
      <point x="430" y="-10"/>
      <point x="300" y="103"/>
      <point x="282" y="198" type="qcurve"/>
      <point x="216" y="198" type="line"/>
      <point x="216" y="0" type="line"/>
      <point x="56" y="0" type="line"/>
      <point x="56" y="525" type="line"/>
      <point x="216" y="525" type="line"/>
      <point x="216" y="337" type="line"/>
    </contour>
    <contour>
      <point x="429" y="262" type="qcurve"/>
      <point x="429" y="195"/>
      <point x="484" y="130"/>
      <point x="529" y="130" type="qcurve"/>
      <point x="576" y="130"/>
      <point x="630" y="197"/>
      <point x="630" y="264" type="qcurve"/>
      <point x="630" y="331"/>
      <point x="575" y="395"/>
      <point x="530" y="395" type="qcurve"/>
      <point x="483" y="395"/>
      <point x="429" y="328"/>
    </contour>
  </outline>
</glyph>
<glyph name="uni0454" format="1">
  <advance width="558"/>
  <unicode hex="0454"/>
  <outline>
    <contour>
      <point x="305" y="-10" type="qcurve"/>
      <point x="243" y="-10"/>
      <point x="139" y="33"/>
      <point x="64" y="107"/>
      <point x="23" y="207"/>
      <point x="23" y="265" type="qcurve"/>
      <point x="23" y="319"/>
      <point x="63" y="416"/>
      <point x="137" y="491"/>
      <point x="244" y="535"/>
      <point x="310" y="535" type="qcurve"/>
      <point x="388" y="535"/>
      <point x="509" y="470"/>
      <point x="538" y="418" type="qcurve"/>
      <point x="419" y="335" type="line"/>
      <point x="403" y="370"/>
      <point x="337" y="403"/>
      <point x="309" y="403" type="qcurve"/>
      <point x="286" y="403"/>
      <point x="248" y="387"/>
      <point x="219" y="362"/>
      <point x="199" y="329"/>
      <point x="193" y="311" type="qcurve"/>
      <point x="359" y="311" type="line"/>
      <point x="359" y="212" type="line"/>
      <point x="195" y="212" type="line"/>
      <point x="206" y="174"/>
      <point x="266" y="122"/>
      <point x="308" y="122" type="qcurve"/>
      <point x="338" y="122"/>
      <point x="401" y="157"/>
      <point x="415" y="189" type="qcurve"/>
      <point x="544" y="114" type="line"/>
      <point x="532" y="85"/>
      <point x="481" y="39"/>
      <point x="415" y="7"/>
      <point x="341" y="-10"/>
    </contour>
  </outline>
</glyph>
<glyph name="uni0458" format="1">
  <advance width="278"/>
  <unicode hex="0458"/>
  <outline>
    <contour>
      <point x="29" y="-202" type="qcurve"/>
      <point x="-11" y="-202"/>
      <point x="-83" y="-177"/>
      <point x="-112" y="-152" type="qcurve"/>
      <point x="-45" y="-43" type="line"/>
      <point x="-34" y="-54"/>
      <point x="-6" y="-64"/>
      <point x="9" y="-64" type="qcurve"/>
      <point x="32" y="-64"/>
      <point x="62" y="-34"/>
      <point x="62" y="-9" type="qcurve"/>
      <point x="62" y="525" type="line"/>
      <point x="222" y="525" type="line"/>
      <point x="222" y="3" type="line"/>
      <point x="222" y="-42"/>
      <point x="193" y="-118"/>
      <point x="141" y="-172"/>
      <point x="70" y="-202"/>
    </contour>
    <contour>
      <point x="62" y="585" type="line"/>
      <point x="62" y="730" type="line"/>
      <point x="222" y="730" type="line"/>
      <point x="222" y="585" type="line"/>
    </contour>
  </outline>
</glyph>
<glyph name="Rdotbelow" format="1">
  <advance width="670"/>
  <unicode hex="1E5A"/>
  <outline>
    <contour>
      <point x="68" y="0" type="line"/>
      <point x="68" y="710" type="line"/>
      <point x="388" y="710" type="line"/>
      <point x="438" y="710"/>
      <point x="523" y="668"/>
      <point x="585" y="600"/>
      <point x="620" y="514"/>
      <point x="620" y="470" type="qcurve"/>
      <point x="620" y="437"/>
      <point x="604" y="376"/>
      <point x="574" y="322"/>
      <point x="531" y="279"/>
      <point x="504" y="264" type="qcurve"/>
      <point x="660" y="0" type="line"/>
      <point x="475" y="0" type="line"/>
      <point x="339" y="229" type="line"/>
      <point x="232" y="229" type="line"/>
      <point x="232" y="0" type="line"/>
    </contour>
    <contour>
      <point x="232" y="372" type="line"/>
      <point x="382" y="372" type="line"/>
      <point x="411" y="372"/>
      <point x="453" y="427"/>
      <point x="453" y="470" type="qcurve"/>
      <point x="453" y="514"/>
      <point x="405" y="566"/>
      <point x="377" y="566" type="qcurve"/>
      <point x="232" y="566" type="line"/>
    </contour>
    <contour>
      <point x="268" y="-204" type="line"/>
      <point x="268" y="-67" type="line"/>
      <point x="412" y="-67" type="line"/>
      <point x="412" y="-204" type="line"/>
    </contour>
  </outline>
</glyph>
<glyph name="sdotbelow" format="1">
  <advance width="499"/>
  <unicode hex="1E63"/>
  <outline>
    <contour>
      <point x="262" y="-10" type="qcurve"/>
      <point x="195" y="-10"/>
      <point x="65" y="33"/>
      <point x="20" y="74" type="qcurve"/>
      <point x="77" y="172" type="line"/>
      <point x="125" y="139"/>
      <point x="216" y="103"/>
      <point x="258" y="103" type="qcurve"/>
      <point x="289" y="103"/>
      <point x="323" y="125"/>
      <point x="323" y="146" type="qcurve"/>
      <point x="323" y="167"/>
      <point x="280" y="192"/>
      <point x="226" y="206" type="qcurve"/>
      <point x="173" y="221"/>
      <point x="100" y="249"/>
      <point x="54" y="283"/>
      <point x="34" y="327"/>
      <point x="34" y="357" type="qcurve"/>
      <point x="34" y="397"/>
      <point x="66" y="463"/>
      <point x="122" y="509"/>
      <point x="199" y="535"/>
      <point x="244" y="535" type="qcurve"/>
      <point x="303" y="535"/>
      <point x="406" y="503"/>
      <point x="454" y="461" type="qcurve"/>
      <point x="392" y="365" type="line"/>
      <point x="347" y="396"/>
      <point x="277" y="424"/>
      <point x="244" y="424" type="qcurve"/>
      <point x="218" y="424"/>
      <point x="182" y="403"/>
      <point x="182" y="380" type="qcurve"/>
      <point x="182" y="358"/>
      <point x="221" y="336"/>
      <point x="274" y="323" type="qcurve"/>
      <point x="330" y="308"/>
      <point x="407" y="278"/>
      <point x="455" y="241"/>
      <point x="477" y="193"/>
      <point x="477" y="160" type="qcurve"/>
      <point x="477" y="82"/>
      <point x="361" y="-10"/>
    </contour>
    <contour>
      <point x="178" y="-204" type="line"/>
      <point x="178" y="-67" type="line"/>
      <point x="322" y="-67" type="line"/>
      <point x="322" y="-204" type="line"/>
    </contour>
  </outline>
</glyph>
<glyph name="ytilde" format="1">
  <advance width="552"/>
  <unicode hex="1EF9"/>
  <outline>
    <contour>
      <point x="59" y="-79" type="line"/>
      <point x="79" y="-86"/>
      <point x="114" y="-92"/>
      <point x="128" y="-92" type="qcurve"/>
      <point x="157" y="-92"/>
      <point x="189" y="-52"/>
      <point x="202" y="0" type="qcurve"/>
      <point x="2" y="525" type="line"/>
      <point x="167" y="525" type="line"/>
      <point x="289" y="137" type="line"/>
      <point x="394" y="525" type="line"/>
      <point x="544" y="525" type="line"/>
      <point x="344" y="-85" type="line"/>
      <point x="323" y="-150"/>
      <point x="215" y="-231"/>
      <point x="141" y="-231" type="qcurve"/>
      <point x="121" y="-231"/>
      <point x="80" y="-224"/>
      <point x="59" y="-216" type="qcurve"/>
    </contour>
    <contour>
      <point x="353" y="588" type="qcurve"/>
      <point x="330" y="588"/>
      <point x="295" y="602"/>
      <point x="265" y="620"/>
      <point x="237" y="634"/>
      <point x="220" y="634" type="qcurve"/>
      <point x="203" y="634"/>
      <point x="185" y="620"/>
      <point x="175" y="602"/>
      <point x="173" y="587"/>
      <point x="173" y="586" type="qcurve"/>
      <point x="87" y="586" type="line"/>
      <point x="87" y="597"/>
      <point x="100" y="644"/>
      <point x="130" y="692"/>
      <point x="179" y="728"/>
      <point x="214" y="728" type="qcurve"/>
      <point x="238" y="728"/>
      <point x="272" y="713"/>
      <point x="301" y="695"/>
      <point x="329" y="680"/>
      <point x="347" y="680" type="qcurve"/>
      <point x="364" y="680"/>
      <point x="385" y="695"/>
      <point x="396" y="713"/>
      <point x="399" y="729"/>
      <point x="399" y="730" type="qcurve"/>
      <point x="485" y="730" type="line"/>
      <point x="485" y="722"/>
      <point x="471" y="676"/>
      <point x="440" y="626"/>
      <point x="390" y="588"/>
    </contour>
  </outline>
</glyph>
<glyph name="emdash" format="1">
  <advance width="937"/>
  <unicode hex="2014"/>
  <outline>
    <contour>
      <point x="54" y="203" type="line"/>
      <point x="54" y="347" type="line"/>
      <point x="883" y="347" type="line"/>
      <point x="883" y="203" type="line"/>
    </contour>
  </outline>
</glyph>
<glyph name="quoteleft" format="1">
  <advance width="268"/>
  <unicode hex="2018"/>
  <outline>
    <contour>
      <point x="195" y="730" type="line"/>
      <point x="171" y="604" type="line"/>
      <point x="216" y="604" type="line"/>
      <point x="216" y="457" type="line"/>
      <point x="53" y="457" type="line"/>
      <point x="53" y="607" type="line"/>
      <point x="91" y="730" type="line"/>
    </contour>
  </outline>
</glyph>
<glyph name="quoteright" format="1">
  <advance width="258"/>
  <unicode hex="2019"/>
  <outline>
    <contour>
      <point x="70" y="467" type="line"/>
      <point x="94" y="593" type="line"/>
      <point x="49" y="593" type="line"/>
      <point x="49" y="740" type="line"/>
      <point x="212" y="740" type="line"/>
      <point x="212" y="590" type="line"/>
      <point x="174" y="467" type="line"/>
    </contour>
  </outline>
</glyph>
<glyph name="twoinferior" format="1">
  <advance width="433"/>
  <unicode hex="2082"/>
  <outline>
    <contour>
      <point x="28" y="-87" type="line"/>
      <point x="28" y="-45"/>
      <point x="41" y="17"/>
      <point x="72" y="64"/>
      <point x="123" y="100"/>
      <point x="161" y="116" type="qcurve"/>
      <point x="185" y="126"/>
      <point x="231" y="145"/>
      <point x="268" y="166"/>
      <point x="291" y="192"/>
      <point x="291" y="210" type="qcurve"/>
      <point x="291" y="235"/>
      <point x="249" y="257"/>
      <point x="211" y="257" type="qcurve"/>
      <point x="169" y="257"/>
      <point x="108" y="227"/>
      <point x="90" y="210" type="qcurve"/>
      <point x="31" y="279" type="line"/>
      <point x="50" y="303"/>
      <point x="150" y="348"/>
      <point x="226" y="348" type="qcurve"/>
      <point x="309" y="348"/>
      <point x="396" y="276"/>
      <point x="396" y="209" type="qcurve"/>
      <point x="396" y="176"/>
      <point x="371" y="129"/>
      <point x="332" y="97"/>
      <point x="287" y="78"/>
      <point x="268" y="72" type="qcurve"/>
      <point x="182" y="47"/>
      <point x="182" y="4" type="qcurve"/>
      <point x="397" y="4" type="line"/>
      <point x="397" y="-87" type="line"/>
    </contour>
  </outline>
</glyph>
<glyph name="eightinferior" format="1">
  <advance width="429"/>
  <unicode hex="2088"/>
  <outline>
    <contour>
      <point x="399" y="41" type="qcurve"/>
      <point x="399" y="12"/>
      <point x="369" y="-37"/>
      <point x="319" y="-73"/>
      <point x="251" y="-93"/>
      <point x="214" y="-93" type="qcurve"/>
      <point x="176" y="-93"/>
      <point x="109" y="-72"/>
      <point x="59" y="-36"/>
      <point x="30" y="14"/>
      <point x="30" y="43" type="qcurve"/>
      <point x="30" y="82"/>
      <point x="79" y="127"/>
      <point x="112" y="143" type="qcurve"/>
      <point x="86" y="154"/>
      <point x="46" y="193"/>
      <point x="46" y="224" type="qcurve"/>
      <point x="46" y="250"/>
      <point x="76" y="294"/>
      <point x="124" y="325"/>
      <point x="184" y="343"/>
      <point x="214" y="343" type="qcurve"/>
      <point x="244" y="343"/>
      <point x="304" y="326"/>
      <point x="353" y="295"/>
      <point x="383" y="251"/>
      <point x="383" y="225" type="qcurve"/>
      <point x="383" y="196"/>
      <point x="345" y="154"/>
      <point x="317" y="143" type="qcurve"/>
      <point x="352" y="126"/>
      <point x="399" y="78"/>
    </contour>
    <contour>
      <point x="305" y="51" type="qcurve"/>
      <point x="305" y="63"/>
      <point x="289" y="81"/>
      <point x="264" y="94"/>
      <point x="231" y="101"/>
      <point x="214" y="101" type="qcurve"/>
      <point x="178" y="101"/>
      <point x="124" y="73"/>
      <point x="124" y="51" type="qcurve"/>
      <point x="124" y="39"/>
      <point x="140" y="21"/>
      <point x="166" y="7"/>
      <point x="198" y="0"/>
      <point x="215" y="0" type="qcurve"/>
      <point x="232" y="0"/>
      <point x="265" y="7"/>
      <point x="290" y="21"/>
      <point x="305" y="40"/>
    </contour>
    <contour>
      <point x="139" y="215" type="qcurve"/>
      <point x="139" y="197"/>
      <point x="187" y="177"/>
      <point x="214" y="177" type="qcurve"/>
      <point x="241" y="177"/>
      <point x="290" y="197"/>
      <point x="290" y="215" type="qcurve"/>
      <point x="290" y="232"/>
      <point x="244" y="253"/>
      <point x="214" y="253" type="qcurve"/>
      <point x="184" y="253"/>
      <point x="139" y="232"/>
    </contour>
  </outline>
</glyph>
<glyph name="uni20A9" format="1">
  <advance width="1158"/>
  <unicode hex="20A9"/>
  <outline>
    <contour>
      <point x="42" y="262" type="line"/>
      <point x="222" y="262" type="line"/>
      <point x="183" y="360" type="line"/>
      <point x="42" y="360" type="line"/>
      <point x="42" y="460" type="line"/>
      <point x="143" y="460" type="line"/>
      <point x="44" y="710" type="line"/>
      <point x="222" y="710" type="line"/>
      <point x="307" y="460" type="line"/>
      <point x="442" y="460" type="line"/>
      <point x="354" y="709" type="line"/>
      <point x="505" y="709" type="line"/>
      <point x="577" y="482" type="line"/>
      <point x="649" y="709" type="line"/>
      <point x="801" y="709" type="line"/>
      <point x="711" y="460" type="line"/>
      <point x="846" y="460" type="line"/>
      <point x="932" y="710" type="line"/>
      <point x="1111" y="710" type="line"/>
      <point x="1011" y="460" type="line"/>
      <point x="1117" y="460" type="line"/>
      <point x="1117" y="360" type="line"/>
      <point x="971" y="360" type="line"/>
      <point x="932" y="262" type="line"/>
      <point x="1117" y="262" type="line"/>
      <point x="1117" y="162" type="line"/>
      <point x="892" y="162" type="line"/>
      <point x="827" y="0" type="line"/>
      <point x="690" y="0" type="line"/>
      <point x="577" y="278" type="line"/>
      <point x="465" y="0" type="line"/>
      <point x="327" y="0" type="line"/>
      <point x="262" y="162" type="line"/>
      <point x="42" y="162" type="line"/>
    </contour>
    <contour>
      <point x="726" y="262" type="line"/>
      <point x="779" y="262" type="line"/>
      <point x="812" y="360" type="line"/>
      <point x="689" y="360" type="line"/>
    </contour>
    <contour>
      <point x="375" y="262" type="line"/>
      <point x="428" y="262" type="line"/>
      <point x="464" y="360" type="line"/>
      <point x="342" y="360" type="line"/>
    </contour>
  </outline>
</glyph>
<glyph name="servicemark" format="1">
  <advance width="818"/>
  <unicode hex="2120"/>
  <outline>
    <contour>
      <point x="605" y="710" type="line"/>
      <point x="759" y="710" type="line"/>
      <point x="759" y="407" type="line"/>
      <point x="657" y="407" type="line"/>
      <point x="657" y="581" type="line"/>
      <point x="600" y="449" type="line"/>
      <point x="517" y="449" type="line"/>
      <point x="460" y="581" type="line"/>
      <point x="460" y="407" type="line"/>
      <point x="358" y="407" type="line"/>
      <point x="358" y="710" type="line"/>
      <point x="510" y="710" type="line"/>
      <point x="558" y="565" type="line"/>
    </contour>
    <contour>
      <point x="273" y="610" type="line"/>
      <point x="247" y="624"/>
      <point x="203" y="639"/>
      <point x="180" y="639" type="qcurve"/>
      <point x="144" y="639"/>
      <point x="144" y="623" type="qcurve"/>
      <point x="144" y="614"/>
      <point x="166" y="601"/>
      <point x="201" y="594" type="qcurve"/>
      <point x="267" y="581"/>
      <point x="321" y="538"/>
      <point x="321" y="498" type="qcurve"/>
      <point x="321" y="451"/>
      <point x="250" y="401"/>
      <point x="191" y="401" type="qcurve"/>
      <point x="152" y="401"/>
      <point x="68" y="423"/>
      <point x="39" y="440" type="qcurve"/>
      <point x="78" y="514" type="line"/>
      <point x="104" y="498"/>
      <point x="162" y="479"/>
      <point x="189" y="479" type="qcurve"/>
      <point x="227" y="479"/>
      <point x="227" y="493" type="qcurve"/>
      <point x="227" y="502"/>
      <point x="200" y="514"/>
      <point x="165" y="523" type="qcurve"/>
      <point x="134" y="531"/>
      <point x="92" y="547"/>
      <point x="65" y="568"/>
      <point x="53" y="596"/>
      <point x="53" y="614" type="qcurve"/>
      <point x="53" y="660"/>
      <point x="124" y="716"/>
      <point x="181" y="716" type="qcurve"/>
      <point x="212" y="716"/>
      <point x="278" y="698"/>
      <point x="310" y="682" type="qcurve"/>
    </contour>
  </outline>
</glyph>
<glyph name="onethird" format="1">
  <advance width="996"/>
  <unicode hex="2153"/>
  <outline>
    <contour>
      <point x="148" y="56" type="line"/>
      <point x="430" y="380" type="line"/>
      <point x="686" y="719" type="line"/>
      <point x="758" y="655" type="line"/>
      <point x="485" y="339" type="line"/>
      <point x="219" y="-9" type="line"/>
    </contour>
    <contour>
      <point x="299" y="389" type="line"/>
      <point x="299" y="297" type="line"/>
      <point x="59" y="297" type="line"/>
      <point x="59" y="389" type="line"/>
      <point x="136" y="389" type="line"/>
      <point x="136" y="632" type="line"/>
      <point x="131" y="625"/>
      <point x="109" y="607"/>
      <point x="82" y="591"/>
      <point x="54" y="580"/>
      <point x="42" y="580" type="qcurve"/>
      <point x="42" y="673" type="line"/>
      <point x="57" y="673"/>
      <point x="90" y="691"/>
      <point x="118" y="712"/>
      <point x="136" y="730"/>
      <point x="136" y="731" type="qcurve"/>
      <point x="230" y="731" type="line"/>
      <point x="230" y="389" type="line"/>
    </contour>
    <contour>
      <point x="773" y="-6" type="qcurve"/>
      <point x="710" y="-6"/>
      <point x="623" y="32"/>
      <point x="606" y="70" type="qcurve"/>
      <point x="655" y="140" type="line"/>
      <point x="670" y="121"/>
      <point x="726" y="88"/>
      <point x="771" y="88" type="qcurve"/>
      <point x="810" y="88"/>
      <point x="868" y="109"/>
      <point x="868" y="132" type="qcurve"/>
      <point x="868" y="158"/>
      <point x="789" y="181"/>
      <point x="719" y="181" type="qcurve"/>
      <point x="695" y="181" type="line"/>
      <point x="695" y="266" type="line"/>
      <point x="719" y="266" type="line"/>
      <point x="778" y="266"/>
      <point x="853" y="287"/>
      <point x="853" y="312" type="qcurve"/>
      <point x="853" y="322"/>
      <point x="838" y="337"/>
      <point x="815" y="345"/>
      <point x="788" y="349"/>
      <point x="776" y="349" type="qcurve"/>
      <point x="737" y="349"/>
      <point x="685" y="323"/>
      <point x="665" y="302" type="qcurve"/>
      <point x="605" y="378" type="line"/>
      <point x="617" y="392"/>
      <point x="654" y="414"/>
      <point x="699" y="429"/>
      <point x="750" y="436"/>
      <point x="775" y="436" type="qcurve"/>
      <point x="813" y="436"/>
      <point x="878" y="418"/>
      <point x="925" y="386"/>
      <point x="952" y="343"/>
      <point x="952" y="318" type="qcurve"/>
      <point x="952" y="283"/>
      <point x="901" y="237"/>
      <point x="856" y="229" type="qcurve"/>
      <point x="906" y="222"/>
      <point x="962" y="159"/>
      <point x="962" y="118" type="qcurve"/>
      <point x="962" y="85"/>
      <point x="930" y="38"/>
      <point x="877" y="8"/>
      <point x="809" y="-6"/>
    </contour>
  </outline>
</glyph>
<glyph name="oneeighth" format="1">
  <advance width="992"/>
  <unicode hex="215B"/>
  <outline>
    <contour>
      <point x="161" y="56" type="line"/>
      <point x="443" y="380" type="line"/>
      <point x="699" y="719" type="line"/>
      <point x="771" y="655" type="line"/>
      <point x="498" y="339" type="line"/>
      <point x="232" y="-9" type="line"/>
    </contour>
    <contour>
      <point x="299" y="389" type="line"/>
      <point x="299" y="297" type="line"/>
      <point x="59" y="297" type="line"/>
      <point x="59" y="389" type="line"/>
      <point x="136" y="389" type="line"/>
      <point x="136" y="632" type="line"/>
      <point x="131" y="625"/>
      <point x="109" y="607"/>
      <point x="82" y="591"/>
      <point x="54" y="580"/>
      <point x="42" y="580" type="qcurve"/>
      <point x="42" y="673" type="line"/>
      <point x="57" y="673"/>
      <point x="90" y="691"/>
      <point x="118" y="712"/>
      <point x="136" y="730"/>
      <point x="136" y="731" type="qcurve"/>
      <point x="230" y="731" type="line"/>
      <point x="230" y="389" type="line"/>
    </contour>
    <contour>
      <point x="959" y="128" type="qcurve"/>
      <point x="959" y="99"/>
      <point x="929" y="50"/>
      <point x="879" y="14"/>
      <point x="811" y="-6"/>
      <point x="774" y="-6" type="qcurve"/>
      <point x="736" y="-6"/>
      <point x="669" y="15"/>
      <point x="619" y="51"/>
      <point x="590" y="101"/>
      <point x="590" y="130" type="qcurve"/>
      <point x="590" y="169"/>
      <point x="639" y="214"/>
      <point x="672" y="230" type="qcurve"/>
      <point x="646" y="241"/>
      <point x="606" y="280"/>
      <point x="606" y="311" type="qcurve"/>
      <point x="606" y="337"/>
      <point x="636" y="381"/>
      <point x="684" y="412"/>
      <point x="744" y="430"/>
      <point x="774" y="430" type="qcurve"/>
      <point x="804" y="430"/>
      <point x="864" y="413"/>
      <point x="913" y="382"/>
      <point x="943" y="338"/>
      <point x="943" y="312" type="qcurve"/>
      <point x="943" y="283"/>
      <point x="905" y="241"/>
      <point x="877" y="230" type="qcurve"/>
      <point x="912" y="213"/>
      <point x="959" y="165"/>
    </contour>
    <contour>
      <point x="865" y="138" type="qcurve"/>
      <point x="865" y="150"/>
      <point x="849" y="168"/>
      <point x="824" y="181"/>
      <point x="791" y="188"/>
      <point x="774" y="188" type="qcurve"/>
      <point x="738" y="188"/>
      <point x="684" y="161"/>
      <point x="684" y="138" type="qcurve"/>
      <point x="684" y="126"/>
      <point x="700" y="108"/>
      <point x="726" y="94"/>
      <point x="758" y="87"/>
      <point x="775" y="87" type="qcurve"/>
      <point x="792" y="87"/>
      <point x="825" y="94"/>
      <point x="850" y="108"/>
      <point x="865" y="127"/>
    </contour>
    <contour>
      <point x="699" y="302" type="qcurve"/>
      <point x="699" y="284"/>
      <point x="747" y="264"/>
      <point x="774" y="264" type="qcurve"/>
      <point x="801" y="264"/>
      <point x="850" y="284"/>
      <point x="850" y="302" type="qcurve"/>
      <point x="850" y="319"/>
      <point x="804" y="340"/>
      <point x="774" y="340" type="qcurve"/>
      <point x="744" y="340"/>
      <point x="699" y="319"/>
    </contour>
  </outline>
</glyph>
<glyph name="threeeighths" format="1">
  <advance width="1003"/>
  <unicode hex="215C"/>
  <outline>
    <contour>
      <point x="206" y="289" type="qcurve"/>
      <point x="143" y="289"/>
      <point x="56" y="327"/>
      <point x="39" y="365" type="qcurve"/>
      <point x="88" y="435" type="line"/>
      <point x="103" y="416"/>
      <point x="159" y="383"/>
      <point x="204" y="383" type="qcurve"/>
      <point x="243" y="383"/>
      <point x="301" y="404"/>
      <point x="301" y="427" type="qcurve"/>
      <point x="301" y="453"/>
      <point x="222" y="476"/>
      <point x="152" y="476" type="qcurve"/>
      <point x="128" y="476" type="line"/>
      <point x="128" y="561" type="line"/>
      <point x="152" y="561" type="line"/>
      <point x="211" y="561"/>
      <point x="286" y="582"/>
      <point x="286" y="608" type="qcurve"/>
      <point x="286" y="618"/>
      <point x="271" y="632"/>
      <point x="248" y="641"/>
      <point x="221" y="645"/>
      <point x="209" y="645" type="qcurve"/>
      <point x="170" y="645"/>
      <point x="118" y="619"/>
      <point x="98" y="598" type="qcurve"/>
      <point x="38" y="673" type="line"/>
      <point x="50" y="687"/>
      <point x="87" y="709"/>
      <point x="132" y="724"/>
      <point x="183" y="731"/>
      <point x="208" y="731" type="qcurve"/>
      <point x="246" y="731"/>
      <point x="311" y="713"/>
      <point x="358" y="681"/>
      <point x="385" y="638"/>
      <point x="385" y="613" type="qcurve"/>
      <point x="385" y="578"/>
      <point x="334" y="532"/>
      <point x="289" y="524" type="qcurve"/>
      <point x="339" y="517"/>
      <point x="395" y="455"/>
      <point x="395" y="413" type="qcurve"/>
      <point x="395" y="380"/>
      <point x="363" y="333"/>
      <point x="310" y="303"/>
      <point x="242" y="289"/>
    </contour>
    <contour>
      <point x="197" y="56" type="line"/>
      <point x="479" y="380" type="line"/>
      <point x="735" y="719" type="line"/>
      <point x="807" y="655" type="line"/>
      <point x="534" y="339" type="line"/>
      <point x="268" y="-9" type="line"/>
    </contour>
    <contour>
      <point x="969" y="128" type="qcurve"/>
      <point x="969" y="99"/>
      <point x="939" y="50"/>
      <point x="889" y="14"/>
      <point x="821" y="-6"/>
      <point x="784" y="-6" type="qcurve"/>
      <point x="746" y="-6"/>
      <point x="679" y="15"/>
      <point x="629" y="51"/>
      <point x="600" y="101"/>
      <point x="600" y="130" type="qcurve"/>
      <point x="600" y="169"/>
      <point x="649" y="214"/>
      <point x="682" y="230" type="qcurve"/>
      <point x="656" y="241"/>
      <point x="616" y="280"/>
      <point x="616" y="311" type="qcurve"/>
      <point x="616" y="337"/>
      <point x="646" y="381"/>
      <point x="694" y="412"/>
      <point x="754" y="430"/>
      <point x="784" y="430" type="qcurve"/>
      <point x="814" y="430"/>
      <point x="874" y="413"/>
      <point x="923" y="382"/>
      <point x="953" y="338"/>
      <point x="953" y="312" type="qcurve"/>
      <point x="953" y="283"/>
      <point x="915" y="241"/>
      <point x="887" y="230" type="qcurve"/>
      <point x="922" y="213"/>
      <point x="969" y="165"/>
    </contour>
    <contour>
      <point x="875" y="138" type="qcurve"/>
      <point x="875" y="150"/>
      <point x="859" y="168"/>
      <point x="834" y="181"/>
      <point x="801" y="188"/>
      <point x="784" y="188" type="qcurve"/>
      <point x="748" y="188"/>
      <point x="694" y="161"/>
      <point x="694" y="138" type="qcurve"/>
      <point x="694" y="126"/>
      <point x="710" y="108"/>
      <point x="736" y="94"/>
      <point x="768" y="87"/>
      <point x="785" y="87" type="qcurve"/>
      <point x="802" y="87"/>
      <point x="835" y="94"/>
      <point x="860" y="108"/>
      <point x="875" y="127"/>
    </contour>
    <contour>
      <point x="709" y="302" type="qcurve"/>
      <point x="709" y="284"/>
      <point x="757" y="264"/>
      <point x="784" y="264" type="qcurve"/>
      <point x="811" y="264"/>
      <point x="860" y="284"/>
      <point x="860" y="302" type="qcurve"/>
      <point x="860" y="319"/>
      <point x="814" y="340"/>
      <point x="784" y="340" type="qcurve"/>
      <point x="754" y="340"/>
      <point x="709" y="319"/>
    </contour>
  </outline>
</glyph>
<glyph name="f_f" format="1">
  <advance width="665"/>
  <unicode hex="FB00"/>
  <outline>
    <contour>
      <point x="587" y="605" type="qcurve"/>
      <point x="554" y="605"/>
      <point x="524" y="563"/>
      <point x="524" y="531" type="qcurve"/>
      <point x="524" y="482" type="line"/>
      <point x="651" y="482" type="line"/>
      <point x="651" y="361" type="line"/>
      <point x="524" y="361" type="line"/>
      <point x="524" y="0" type="line"/>
      <point x="364" y="0" type="line"/>
      <point x="364" y="361" type="line"/>
      <point x="249" y="361" type="line"/>
      <point x="249" y="0" type="line"/>
      <point x="89" y="0" type="line"/>
      <point x="89" y="361" type="line"/>
      <point x="22" y="361" type="line"/>
      <point x="22" y="482" type="line"/>
      <point x="89" y="482" type="line"/>
      <point x="89" y="499" type="line"/>
      <point x="89" y="544"/>
      <point x="115" y="620"/>
      <point x="163" y="674"/>
      <point x="232" y="705"/>
      <point x="276" y="705" type="qcurve"/>
      <point x="308" y="705"/>
      <point x="376" y="690"/>
      <point x="411" y="676" type="qcurve"/>
      <point x="435" y="705"/>
      <point x="506" y="740"/>
      <point x="554" y="740" type="qcurve"/>
      <point x="589" y="740"/>
      <point x="655" y="722"/>
      <point x="687" y="709" type="qcurve"/>
      <point x="658" y="589" type="line"/>
      <point x="643" y="595"/>
      <point x="606" y="605"/>
    </contour>
    <contour>
      <point x="364" y="482" type="line"/>
      <point x="364" y="485"/>
      <point x="364" y="507"/>
      <point x="365" y="533"/>
      <point x="367" y="556"/>
      <point x="368" y="558" type="qcurve"/>
      <point x="354" y="564"/>
      <point x="322" y="570"/>
      <point x="309" y="570" type="qcurve"/>
      <point x="277" y="570"/>
      <point x="249" y="534"/>
      <point x="249" y="504" type="qcurve"/>
      <point x="249" y="482" type="line"/>
    </contour>
  </outline>
</glyph>
<glyph name="D.sc" format="1">
  <advance width="639"/>
  <outline>
    <contour>
      <point x="350" y="707" type="move" name="top"/>
    </contour>
    <contour>
      <point x="62" y="0" type="line"/>
      <point x="62" y="563" type="line"/>
      <point x="296" y="563" type="line"/>
      <point x="374" y="563"/>
      <point x="491" y="519"/>
      <point x="570" y="443"/>
      <point x="610" y="341"/>
      <point x="610" y="283" type="qcurve"/>
      <point x="610" y="219"/>
      <point x="565" y="114"/>
      <point x="483" y="40"/>
      <point x="367" y="0"/>
      <point x="296" y="0" type="qcurve"/>
    </contour>
    <contour>
      <point x="464" y="283" type="qcurve"/>
      <point x="464" y="352"/>
      <point x="376" y="438"/>
      <point x="296" y="438" type="qcurve"/>
      <point x="206" y="438" type="line"/>
      <point x="206" y="125" type="line"/>
      <point x="296" y="125" type="line"/>
      <point x="336" y="125"/>
      <point x="399" y="149"/>
      <point x="442" y="191"/>
      <point x="464" y="249"/>
    </contour>
  </outline>
</glyph>
<glyph name="P.sc" format="1">
  <advance width="556"/>
  <outline>
    <contour>
      <point x="62" y="0" type="line"/>
      <point x="62" y="563" type="line"/>
      <point x="330" y="563" type="line"/>
      <point x="375" y="563"/>
      <point x="451" y="529"/>
      <point x="505" y="475"/>
      <point x="536" y="406"/>
      <point x="536" y="370" type="qcurve"/>
      <point x="536" y="333"/>
      <point x="507" y="263"/>
      <point x="454" y="209"/>
      <point x="380" y="176"/>
      <point x="335" y="176" type="qcurve"/>
      <point x="206" y="176" type="line"/>
      <point x="206" y="0" type="line"/>
    </contour>
    <contour>
      <point x="206" y="302" type="line"/>
      <point x="326" y="302" type="line"/>
      <point x="352" y="302"/>
      <point x="390" y="334"/>
      <point x="390" y="370" type="qcurve"/>
      <point x="390" y="407"/>
      <point x="347" y="438"/>
      <point x="321" y="438" type="qcurve"/>
      <point x="206" y="438" type="line"/>
    </contour>
  </outline>
</glyph>
<glyph name="X.sc" format="1">
  <advance width="585"/>
  <outline>
    <contour>
      <point x="154" y="563" type="line"/>
      <point x="293" y="378" type="line"/>
      <point x="431" y="563" type="line"/>
      <point x="587" y="563" type="line"/>
      <point x="368" y="278" type="line"/>
      <point x="580" y="0" type="line"/>
      <point x="424" y="0" type="line"/>
      <point x="293" y="177" type="line"/>
      <point x="162" y="0" type="line"/>
      <point x="5" y="0" type="line"/>
      <point x="217" y="278" type="line"/>
      <point x="-2" y="563" type="line"/>
    </contour>
  </outline>
</glyph>
<glyph name="dotbelow" format="1">
  <advance width="244"/>
  <outline>
    <contour>
      <point x="50" y="-204" type="line"/>
      <point x="50" y="-67" type="line"/>
      <point x="194" y="-67" type="line"/>
      <point x="194" y="-204" type="line"/>
    </contour>
  </outline>
</glyph>
<glyph name="five.lnum" format="1">
  <advance width="575"/>
  <outline>
    <contour>
      <point x="303" y="462" type="qcurve"/>
      <point x="354" y="462"/>
      <point x="440" y="428"/>
      <point x="503" y="368"/>
      <point x="538" y="284"/>
      <point x="538" y="233" type="qcurve"/>
      <point x="538" y="179"/>
      <point x="498" y="90"/>
      <point x="427" y="26"/>
      <point x="328" y="-9"/>
      <point x="270" y="-9" type="qcurve"/>
      <point x="192" y="-9"/>
      <point x="68" y="53"/>
      <point x="35" y="109" type="qcurve"/>
      <point x="125" y="208" type="line"/>
      <point x="153" y="173"/>
      <point x="231" y="131"/>
      <point x="271" y="131" type="qcurve"/>
      <point x="317" y="131"/>
      <point x="374" y="184"/>
      <point x="374" y="229" type="qcurve"/>
      <point x="374" y="272"/>
      <point x="321" y="325"/>
      <point x="280" y="325" type="qcurve"/>
      <point x="253" y="325"/>
      <point x="206" y="301"/>
      <point x="193" y="279" type="qcurve"/>
      <point x="54" y="279" type="line"/>
      <point x="54" y="280"/>
      <point x="62" y="319"/>
      <point x="73" y="381"/>
      <point x="88" y="458"/>
      <point x="96" y="498" type="qcurve"/>
      <point x="114" y="592"/>
      <point x="137" y="711" type="qcurve"/>
      <point x="490" y="711" type="line"/>
      <point x="490" y="565" type="line"/>
      <point x="253" y="565" type="line"/>
      <point x="232" y="444" type="line"/>
      <point x="239" y="451"/>
      <point x="274" y="462"/>
    </contour>
  </outline>
</glyph>
<glyph name="five.numerator" format="1">
  <advance width="402"/>
  <outline>
    <contour>
      <point x="209" y="580" type="qcurve"/>
      <point x="245" y="580"/>
      <point x="306" y="560"/>
      <point x="351" y="523"/>
      <point x="377" y="472"/>
      <point x="377" y="442" type="qcurve"/>
      <point x="377" y="409"/>
      <point x="349" y="355"/>
      <point x="298" y="316"/>
      <point x="228" y="294"/>
      <point x="187" y="294" type="qcurve"/>
      <point x="133" y="294"/>
      <point x="45" y="332"/>
      <point x="22" y="365" type="qcurve"/>
      <point x="76" y="428" type="line"/>
      <point x="96" y="408"/>
      <point x="156" y="384"/>
      <point x="193" y="384" type="qcurve"/>
      <point x="230" y="384"/>
      <point x="281" y="414"/>
      <point x="281" y="446" type="qcurve"/>
      <point x="281" y="463"/>
      <point x="266" y="488"/>
      <point x="243" y="504"/>
      <point x="215" y="511"/>
      <point x="202" y="511" type="qcurve"/>
      <point x="177" y="511"/>
      <point x="127" y="487"/>
      <point x="116" y="467" type="qcurve"/>
      <point x="35" y="467" type="line"/>
      <point x="41" y="498"/>
      <point x="57" y="566"/>
      <point x="73" y="635"/>
      <point x="89" y="702"/>
      <point x="94" y="731" type="qcurve"/>
      <point x="343" y="731" type="line"/>
      <point x="343" y="638" type="line"/>
      <point x="161" y="638" type="line"/>
      <point x="140" y="567" type="line"/>
      <point x="150" y="572"/>
      <point x="183" y="580"/>
    </contour>
  </outline>
</glyph>
<glyph name="nine.lnum" format="1">
  <advance width="607"/>
  <outline>
    <contour>
      <point x="38" y="467" type="qcurve"/>
      <point x="38" y="519"/>
      <point x="78" y="610"/>
      <point x="148" y="677"/>
      <point x="245" y="716"/>
      <point x="301" y="716" type="qcurve"/>
      <point x="363" y="716"/>
      <point x="461" y="670"/>
      <point x="529" y="584"/>
      <point x="565" y="458"/>
      <point x="565" y="379" type="qcurve"/>
      <point x="565" y="286"/>
      <point x="526" y="141"/>
      <point x="453" y="42"/>
      <point x="349" y="-10"/>
      <point x="285" y="-10" type="qcurve"/>
      <point x="219" y="-10"/>
      <point x="105" y="44"/>
      <point x="62" y="95" type="qcurve"/>
      <point x="152" y="197" type="line"/>
      <point x="178" y="165"/>
      <point x="248" y="129"/>
      <point x="287" y="129" type="qcurve"/>
      <point x="346" y="129"/>
      <point x="415" y="213"/>
      <point x="417" y="290" type="qcurve"/>
      <point x="397" y="262"/>
      <point x="330" y="232"/>
      <point x="287" y="232" type="qcurve"/>
      <point x="234" y="232"/>
      <point x="143" y="268"/>
      <point x="76" y="331"/>
      <point x="38" y="417"/>
    </contour>
    <contour>
      <point x="301" y="581" type="qcurve"/>
      <point x="279" y="581"/>
      <point x="239" y="563"/>
      <point x="209" y="532"/>
      <point x="191" y="490"/>
      <point x="191" y="467" type="qcurve"/>
      <point x="191" y="444"/>
      <point x="208" y="405"/>
      <point x="238" y="376"/>
      <point x="278" y="359"/>
      <point x="301" y="359" type="qcurve"/>
      <point x="323" y="359"/>
      <point x="363" y="376"/>
      <point x="393" y="405"/>
      <point x="411" y="444"/>
      <point x="411" y="467" type="qcurve"/>
      <point x="411" y="490"/>
      <point x="393" y="532"/>
      <point x="363" y="563"/>
      <point x="323" y="581"/>
    </contour>
  </outline>
</glyph>
<glyph name="nine.numerator" format="1">
  <advance width="432"/>
  <outline>
    <contour>
      <point x="27" y="579" type="qcurve"/>
      <point x="27" y="611"/>
      <point x="55" y="666"/>
      <point x="105" y="707"/>
      <point x="173" y="730"/>
      <point x="213" y="730" type="qcurve"/>
      <point x="300" y="730"/>
      <point x="400" y="622"/>
      <point x="400" y="523" type="qcurve"/>
      <point x="400" y="412"/>
      <point x="294" y="290"/>
      <point x="201" y="290" type="qcurve"/>
      <point x="154" y="290"/>
      <point x="74" y="322"/>
      <point x="46" y="353" type="qcurve"/>
      <point x="100" y="417" type="line"/>
      <point x="117" y="399"/>
      <point x="173" y="378"/>
      <point x="205" y="378" type="qcurve"/>
      <point x="253" y="378"/>
      <point x="312" y="426"/>
      <point x="314" y="468" type="qcurve"/>
      <point x="298" y="453"/>
      <point x="237" y="437"/>
      <point x="208" y="437" type="qcurve"/>
      <point x="168" y="437"/>
      <point x="102" y="459"/>
      <point x="54" y="497"/>
      <point x="27" y="549"/>
    </contour>
    <contour>
      <point x="212" y="644" type="qcurve"/>
      <point x="192" y="644"/>
      <point x="157" y="634"/>
      <point x="131" y="616"/>
      <point x="116" y="592"/>
      <point x="116" y="579" type="qcurve"/>
      <point x="116" y="554"/>
      <point x="173" y="518"/>
      <point x="213" y="518" type="qcurve"/>
      <point x="253" y="518"/>
      <point x="309" y="554"/>
      <point x="309" y="579" type="qcurve"/>
      <point x="309" y="592"/>
      <point x="294" y="616"/>
      <point x="267" y="634"/>
      <point x="232" y="644"/>
    </contour>
  </outline>
</glyph>
<glyph name="six.denominator" format="1">
  <advance width="432"/>
  <outline>
    <contour>
      <point x="405" y="144" type="qcurve"/>
      <point x="405" y="113"/>
      <point x="377" y="58"/>
      <point x="327" y="18"/>
      <point x="258" y="-6"/>
      <point x="218" y="-6" type="qcurve"/>
      <point x="132" y="-6"/>
      <point x="32" y="101"/>
      <point x="32" y="201" type="qcurve"/>
      <point x="32" y="312"/>
      <point x="138" y="434"/>
      <point x="231" y="434" type="qcurve"/>
      <point x="278" y="434"/>
      <point x="358" y="402"/>
      <point x="385" y="372" type="qcurve"/>
      <point x="332" y="307" type="line"/>
      <point x="315" y="325"/>
      <point x="259" y="345"/>
      <point x="227" y="345" type="qcurve"/>
      <point x="178" y="345"/>
      <point x="120" y="299"/>
      <point x="118" y="256" type="qcurve"/>
      <point x="134" y="272"/>
      <point x="195" y="287"/>
      <point x="223" y="287" type="qcurve"/>
      <point x="263" y="287"/>
      <point x="330" y="265"/>
      <point x="378" y="227"/>
      <point x="405" y="174"/>
    </contour>
    <contour>
      <point x="220" y="80" type="qcurve"/>
      <point x="240" y="80"/>
      <point x="275" y="90"/>
      <point x="302" y="108"/>
      <point x="317" y="131"/>
      <point x="317" y="144" type="qcurve"/>
      <point x="317" y="170"/>
      <point x="260" y="206"/>
      <point x="220" y="206" type="qcurve"/>
      <point x="200" y="206"/>
      <point x="164" y="196"/>
      <point x="137" y="180"/>
      <point x="122" y="157"/>
      <point x="122" y="144" type="qcurve"/>
      <point x="122" y="131"/>
      <point x="138" y="108"/>
      <point x="165" y="90"/>
      <point x="200" y="80"/>
    </contour>
  </outline>
</glyph>
<glyph name="two.numerator" format="1">
  <advance width="428"/>
  <outline>
    <contour>
      <point x="28" y="296" type="line"/>
      <point x="28" y="338"/>
      <point x="41" y="400"/>
      <point x="71" y="447"/>
      <point x="122" y="484"/>
      <point x="160" y="500" type="qcurve"/>
      <point x="184" y="510"/>
      <point x="231" y="528"/>
      <point x="268" y="549"/>
      <point x="291" y="575"/>
      <point x="291" y="593" type="qcurve"/>
      <point x="291" y="618"/>
      <point x="249" y="640"/>
      <point x="211" y="640" type="qcurve"/>
      <point x="169" y="640"/>
      <point x="108" y="611"/>
      <point x="90" y="594" type="qcurve"/>
      <point x="31" y="662" type="line"/>
      <point x="49" y="686"/>
      <point x="150" y="731"/>
      <point x="225" y="731" type="qcurve"/>
      <point x="309" y="731"/>
      <point x="396" y="659"/>
      <point x="396" y="592" type="qcurve"/>
      <point x="396" y="559"/>
      <point x="370" y="512"/>
      <point x="332" y="480"/>
      <point x="287" y="461"/>
      <point x="268" y="455" type="qcurve"/>
      <point x="224" y="442"/>
      <point x="172" y="409"/>
      <point x="172" y="387" type="qcurve"/>
      <point x="382" y="387" type="line"/>
      <point x="382" y="296" type="line"/>
    </contour>
  </outline>
</glyph>
